<?xml version="1.0" encoding="utf-8"?>
<!-- Generator: Adobe Illustrator 27.5.0, SVG Export Plug-In . SVG Version: 6.00 Build 0)  -->
<svg version="1.1" xmlns="http://www.w3.org/2000/svg" xmlns:xlink="http://www.w3.org/1999/xlink" x="0px" y="0px"
	 viewBox="0 0 750 500" style="enable-background:new 0 0 750 500;" xml:space="preserve">
<g id="BACKGROUND">
	<rect style="fill:#BBCAE5;" width="750" height="500"/>
</g>
<g id="OBJECTS">
	<g>
		<path style="fill:#CBDCEF;" d="M143.134,420.362c-4.04-29.468-7.598-61.539,7.557-87.132
			c13.429-22.678,46.484-32.111,62.639-52.936c21.57-27.807,37.011-45.718,40.362-93.092c3.557-50.284,40.39-64.975,76.239-69.903
			c42.985-5.909,56.727,12.069,63.841,19.738c14.493,15.625,26.204,24.627,33.562,26.074c16.295,3.205,41.194-15.313,54.96-6.024
			c12.394,8.364,16.863,24.766,16.341,39.709c-0.522,14.943-5.026,29.471-6.441,44.356c-1.416,14.885,0.902,31.33,11.601,41.775
			c14.106,13.771,37.635,12.616,53.148,24.781c16.068,12.6,19.055,36.515,13.323,56.114c-4.009,13.707-11.506,26.256-14.871,40.135
			c-4.65,19.179-0.757,40.267,10.434,56.522c-44.967-5.581-90.51-6.515-135.669-2.781c-16.971,1.403-33.896,3.464-50.909,4.178
			c-33.267,1.397-66.75-2.356-99.81,1.604c-14.332,1.717-28.616,4.883-43.035,4.191c-12.834-0.616-25.31-4.271-38.017-6.178
			c-7.845-1.177-15.79-1.682-23.721-1.518c-5.476,0.113-18.164,4.073-22.877,1.939C143.59,458.203,144.268,428.634,143.134,420.362z
			"/>
		<g>
			<g>
				<g>
					<path style="fill:#FFA58B;" d="M196.374,147.749c-5.394,0.059-10.778,0.367-16.132,0.923
						c-6.695,0.696-14.611,1.312-19.123-4.046c-2.562-3.043-7.445-10.876-8.811-6.407c-1.925,6.298,12.691,22.29,14.096,23.41
						c1.11,0.884,21.747,3.092,25.532,5.462c4.485,2.809,10.204,17.995,11.931,23.113c6.094-2.043,11.87-6.27,17.656-8.962
						c-1.088-6.098-10.592-18.55-11.682-24.562C208.624,149.962,203.354,147.673,196.374,147.749z"/>
					<path style="fill:#FEFEFE;" d="M220.232,177.412c0,0-4.982-12.91-5.232-14.036c-0.25-1.126-17.71,2.61-23.605,6.367
						l4.855,13.239L220.232,177.412z"/>
					<path style="fill:#416C8C;" d="M262.561,251.025c-4.647-2.033-28.2-52.931-42.329-80.525c-8.736-0.616-17.386,3.691-28.837,7.5
						c7.932,32.536,36.847,98.443,39.334,100.049c23.166,14.966,54.957,21.864,80.971,31.024c6.71,2.363,28.432,7.376,32.878,1.823
						c10.423-13.018,8.237-30.424-3.618-35.861C320.282,265.551,283.403,260.144,262.561,251.025z"/>
					<g>
						<path style="fill:#4C779E;" d="M244.723,264.39c3.168-3.053,6.335-6.105,9.503-9.158c0.929-0.895-0.487-2.308-1.414-1.414
							c-3.168,3.053-6.335,6.105-9.503,9.158C242.38,263.87,243.795,265.284,244.723,264.39L244.723,264.39z"/>
					</g>
					<g>
						<path style="fill:#4C779E;" d="M255.764,259.145c-1.345,3.106-2.69,6.212-4.036,9.318c-0.506,1.169,1.216,2.189,1.727,1.009
							c1.345-3.106,2.69-6.212,4.036-9.318C257.997,258.985,256.275,257.966,255.764,259.145L255.764,259.145z"/>
					</g>
				</g>
				<g>
					<path style="fill:#FFA58B;" d="M527.905,128.25c2.032-0.424,8.78-3.499,10.845-3.704c4.75-0.473,4.165-1.517,3.75-3.551
						c-4.5-0.656-11.925-0.54-17,2.005c5.012-8.944,15.483-11.25,16.75-14c0-4.25-2.48-2.662-7.211-0.852
						c-4.731,1.809-8.568,5.335-12.279,8.781c1.99-6.429,9.24-12.429,13.74-16.609c-0.135-4.362-5.935-0.948-10.597,3
						c-4.663,3.948-8.148,9.292-13.362,12.478c1.423-4.871,15.222-15.728,13.709-18.798c-2.75-2.546-11.716,6.262-17.515,13.56
						c-2.474,3.113-8.168,7.346-9.831,10.257c-1.753-5.034-1.303-14.45-6.666-13.421c-2.679,0.514,1.504,29.207,1.666,30.353
						c0.838,5.92-1.478,17.185,7.462,18.018c7.349,0.685,7.121-8.091,10.949-12.824C517.797,136.167,519.23,130.061,527.905,128.25z
						"/>
					<path style="fill:#FEFEFE;" d="M487.25,158.222c0,0,1-14.972,1.5-15.972s21.634,2.5,26.567,4.5l-2.067,16.5L487.25,158.222z"/>
					<path style="fill:#4C779E;" d="M464.039,235.561c2.036-1.624,19.688-63.232,22.711-86.561
						c10.195,1.75,20.719,3.632,30.412,5.765c-4.412,26.25-9.507,85.493-21.335,100.756c-17.535,22.626-78.511,60.138-87.67,62.863
						c-9.545,2.84-20.786-2.053-25.212-10.974c-10.188-20.535,12.686-28.953,25.757-37.65
						C428.273,256.738,445.663,250.219,464.039,235.561z"/>
					<g>
						<path style="fill:#EF947F;" d="M503.009,125.403c3.878,0.45,7.256,2.351,9.77,5.315c0.834,0.983,2.242-0.438,1.414-1.414
							c-2.874-3.39-6.787-5.391-11.184-5.901C501.733,123.255,501.743,125.257,503.009,125.403L503.009,125.403z"/>
					</g>
					<g>
						<path style="fill:#416C8C;" d="M473.023,240.777c4.952,2.338,9.473,5.33,13.54,9c0.953,0.861,2.372-0.55,1.414-1.414
							c-4.19-3.782-8.839-6.902-13.944-9.313C472.875,238.503,471.858,240.227,473.023,240.777L473.023,240.777z"/>
					</g>
					<g>
						<path style="fill:#416C8C;" d="M475.343,235.89c4.977,0.542,9.498,2.543,13.266,5.836c0.965,0.844,2.386-0.565,1.414-1.414
							c-4.196-3.667-9.142-5.819-14.68-6.422C474.065,233.751,474.075,235.752,475.343,235.89L475.343,235.89z"/>
					</g>
				</g>
				<g>
					<path style="fill:#FFA58B;" d="M609.471,285c-2.392,0-6.187,4.698-9.791,6.563c-0.321,1.344,9.791-12.063,7.197-16.866
						c-2.526-1.437-8.298,12.826-9.701,13.303c0.913-4.961,4.269-13.233,3.435-18.208c-0.151-0.904-0.273-2.302-1.171-2.38
						c-2.607-0.226-4.261,10.315-4.424,11.682c-0.156,1.314-1.387,3.856-1.913,4.406c-0.59-3.733-1.365-9.374-2.94-12.553
						c-0.261-0.526-0.541-1.066-0.995-1.432s-1.129-0.516-1.616-0.197c0.419,4.935,2.256,11.182-0.584,14.432
						c-3.375,1.496-5.772,2.2-9.418,2.551c2.131-1.996,12.196-7.917,5.651-12.801c0,0-3.544,3.696-4.668,4.884
						c-1.124,1.188-6.179,3.009-10.382,4.616c-7.114,2.72-7.733,7.291-11.115,13.25c-3.374,5.946-14.818,13.93-19.369,19.132
						c4.773,4.662,4.891,9.324,9.664,13.986c4.172-4.319,9.903-7.799,14.074-12.118c2.941-3.045,6.798-7.436,10.596-9.25
						c3.588-1.714,6.606-1.376,10.412-2.5c5.866-1.733,6.344-1.179,12.587-4.25C595.507,301.001,615.257,287.25,609.471,285z"/>
					<path style="fill:#FAFDFC;" d="M544.5,304.75l10.75-8c0,0,11.056,10,10.778,20.75L554,324.75
						C554,324.75,550.75,309.25,544.5,304.75z"/>
					<path style="fill:#416C8C;" d="M489.174,339.056c17.466-11.743,59.017-40.591,60.619-39.55
						c1.217,0.791,10.87,13.91,12.029,23.744c-10.349,11.089-64.601,50.977-66.827,50.146
						c-21.285-7.944-54.777-28.977-87.155-48.816c-2.888-1.77-6.006-3.394-7.99-6.138c-5.855-8.096-3.975-26.957,1.861-34.611
						c6.348-8.326,0.366-5.587,8.842-1.772C436.631,293.797,473.224,319.39,489.174,339.056z"/>
					<g>
						<path style="fill:#EF947F;" d="M574.405,290.566c2.461,2.037,4.16,4.647,4.983,7.736c0.331,1.243,2.261,0.715,1.929-0.532
							c-0.905-3.398-2.786-6.375-5.497-8.619C574.835,288.337,573.413,289.744,574.405,290.566L574.405,290.566z"/>
					</g>
				</g>
				<g>
					<path style="fill:#FFA58B;" d="M122.312,327.916c-5.94-0.921-8.195-1.174-14.445-3.271c-0.9,6.424,6.115,8.561,11.313,9.822
						c-3.63,1.93-9.852,3.184-14.094,1.421c-5.03-2.091-5.355-3.482-9.756-10.043c-2.911-4.48-4.997-2.122-2.695,4.825
						c3.322,4.965,5.56,10.034,10.61,12.277c-5.357-0.127-14.712-7.628-16.494-9.669c-2.364,1.926-0.61,5.877,1.528,8.177
						c4.593,4.938,12.447,7.96,18.869,9.739c-8.76,3.197-16.677-2.008-18.072-0.534c-1.392,2.915,5.349,6.396,9.349,7.108
						s8.057-0.046,12.005-0.814c-2.712,3.336-10.985,7.367-9.657,8.421c1.847,1.405,4.377,0.169,6.336-0.957
						c13.293-7.642,30.035-9.093,44.773-3.881c0.714,0.253,1.488,0.522,2.197,0.295c1.412-0.452,1.543-2.371,1.537-3.88
						c-0.019-5.268,1.475-10.482,4.282-14.841c-6.745,0.811-11.206,1.035-16.555-2.983
						C135.816,333.473,131.548,329.348,122.312,327.916z"/>
					<path style="fill:#FAFDFC;" d="M159.846,340.4c0,0-12.146-3.662-14.496-3.031c0,0-3.1,16.881-2.6,23.631l12.59,2.103
						L159.846,340.4z"/>
					<path style="fill:#4C779E;" d="M244.75,344.97c-5.379,1.254-74.358-7.977-91.352-8.47c-0.663,9.694-2.995,18.557-2.995,26.391
						c57.701,20.485,108.589,15.514,111.929,14.047c30.603-13.441,73.759-50.243,76.51-53.126c6.358-6.666-0.589-30.735-5.79-34.141
						c-10.742-7.035-17.195-1.869-24.557,4.697C297.974,303.749,255.21,342.532,244.75,344.97z"/>
					<g>
						<path style="fill:#EF947F;" d="M118.851,337.758c-1.116,5.55-1.943,11.961,2.932,15.992c0.985,0.814,2.407-0.593,1.414-1.414
							c-4.307-3.561-3.396-9.184-2.418-14.046C121.033,337.033,119.105,336.495,118.851,337.758L118.851,337.758z"/>
					</g>
					<g>
						<path style="fill:#416C8C;" d="M245.814,351.887c1.536,3.786,3.072,7.572,4.607,11.357c0.478,1.177,2.413,0.663,1.929-0.532
							c-1.536-3.786-3.072-7.572-4.607-11.357C247.265,350.178,245.329,350.693,245.814,351.887L245.814,351.887z"/>
					</g>
					<g>
						<path style="fill:#416C8C;" d="M249.209,350.12c2.392,3.371,4.784,6.741,7.176,10.112c0.739,1.041,2.474,0.043,1.727-1.009
							c-2.392-3.371-4.784-6.741-7.176-10.112C250.197,348.069,248.462,349.067,249.209,350.12L249.209,350.12z"/>
					</g>
				</g>
				<g>
					<path style="fill:#4C779E;" d="M309.451,291.665c-7.967,7.955-0.375,47.561,7.827,56.357
						C330,361.667,337,379.003,339.586,392.697c3.766,19.948-15.907,47.94-12.586,67.966c36.371,0,91.749,0.955,114.667-1.997
						c1.531-22.632-23.333-53-20-95.564c0.695-8.872,7.476-20.24,6.667-29.103c-1.215-13.298-12.989-10.754-15-38
						c-0.256-3.461-0.216-11.605-2.782-13.942c-2.255-2.054-5.28-3.004-8.221-3.814c-16.761-4.615-33.622-5.948-50.93-5.701
						C336.181,272.76,321.868,279.266,309.451,291.665z"/>
					<g>
						<g>
							<path style="fill:#416C8C;" d="M342.674,362.283c5.92,5.733,16.173,8.261,24.066,5.629
								c8.836-2.946,12.529-12.182,15.463-20.202c0.443-1.211-1.489-1.733-1.929-0.532c-2.632,7.195-5.754,15.507-13.492,18.536
								c-7.255,2.84-17.179,0.495-22.695-4.846C343.163,359.973,341.747,361.386,342.674,362.283L342.674,362.283z"/>
						</g>
						<g>
							<path style="fill:#416C8C;" d="M393.299,348.848c2.192,5.835,7.249,10.074,13.451,10.989
								c1.259,0.186,1.802-1.741,0.532-1.929c-5.474-0.808-10.095-4.378-12.054-9.592
								C394.779,347.123,392.845,347.64,393.299,348.848L393.299,348.848z"/>
						</g>
					</g>
				</g>
				<g>
					<path style="fill:#1B333F;" d="M326.667,222.565c0.177,8.501,0.667,29.914-7,41.047c8.612,4.087,26.758,5.25,46.333,5.721
						c8.021,0.193,31.62-1.734,39.632-4.143c-5.632-10.796-0.412-29.485-0.316-40.699c0.074-8.642,0.068-17.65-3.751-25.403
						c-3.893-7.903-11.407-13.57-19.57-16.883c-8.066-3.273-17.061-3.921-25.539-1.948
						C334.637,185.333,326.283,204.112,326.667,222.565z"/>
					<path style="fill:#FAFDFC;" d="M331.563,292.534c0.253,3.078,0.506,6.156,0.759,9.233c3.378-2.217,7.073-3.952,10.937-5.134
						c0.087,3.792,0.175,7.583,0.262,11.375c11.057-1.803,21.381,5.941,32.508,7.246c0.879,0.103,1.831,0.15,2.585-0.312
						c0.73-0.448,16.217-11.921,22.702-14.042c-0.959-2.188-8.37-5.178-10.044-6.884c4.283-0.797,8.567-1.594,12.85-2.391
						c-0.567-7.219-2.279-10.929-8.804-18.753c-2.242-2.689-7.318-6.941-16.397-8.125c-13.095-1.708-21.271-0.548-34.354,1.774
						C331.892,268.77,330.671,281.678,331.563,292.534z"/>
					<path style="fill:#EF947F;" d="M350,269.347c-2.029,3.12-4.857,5.837-4.857,5.837c0.092,2.237,1.385,4.223,2.634,6.081
						c7.732,11.503,16.013,23.5,28.429,29.66c7.127-7.818,10.46-22.849,11.732-35.87c-6.454-1.564-7.533-4.241-7.95-8.123
						c-0.799-7.455,0.523-15.251,0.416-23.659c-0.011-0.864-24.408-2.301-30.405-4.804C351.746,248.211,351.859,266.487,350,269.347
						z"/>
					<path style="fill:#FFA58B;" d="M350.01,255.151c3.652,4.332,20.087,12.245,24.657,12.031
						c5.322-0.25,15.519-11.949,16.333-13.555c6.946-13.698,6.965-25.119,6.593-40.473c-0.085-3.515-0.383-7.089-1.695-10.351
						c-2.474-6.153-8.32-10.449-14.583-12.63c-6.263-2.18-12.991-2.535-19.614-2.87c-4.006-0.203-8.333-0.32-11.652,1.932
						c-7.856,5.332-10.149,22.242-8.623,30.626C345.138,240.259,341.961,245.604,350.01,255.151z"/>
					<path style="fill:#1B333F;" d="M353.333,205.712c3.252,3.546,4.333,7.465,4.333,11.801c7.321-2.154,10.395-4,14.812-12.749
						c1.041,4.494,2.954,7.14,2.521,12.749c7.589-0.802,8.485-4.9,13.333-10.793c0.109,2.538,1.729,5.184,0.35,10.899
						c8.043,0.286,8.265,0.258,11.316-2.287c2.771-2.311,1.768-7.419,1.128-10.969s-2.682-6.707-5.089-9.395
						c-6.687-7.469-16.611-11.933-26.635-11.984c-4.686-0.023-9.323,0.866-13.924,1.752c-3.238,0.624-6.556,1.278-9.364,3.006
						c-4.217,2.595-6.687,7.22-8.79,11.702c-1.968,4.195-4.849,10.399-2.721,15.076c2.453,5.392,5.585,19.218,8.311,15.441
						C346.858,224.5,349.264,218.043,353.333,205.712z"/>
					<path style="fill:#FFA58B;" d="M346.518,234.348c0,0,0.855-15.724-8.684-10.705c-3.977,2.093-4.725,16.34,0.538,20.19
						c1.521,1.112,3.44,1.952,5.262,1.474C345.677,244.772,347.062,236.389,346.518,234.348z"/>
					<g>
						<path style="fill:#DB7D6E;" d="M372.652,229.855c-0.866,2.47-0.978,5.029-0.111,7.522c0.4,1.151,1.006,2.147,1.718,3.133
							c0.216,0.299,0.484,0.556,0.711,0.845c1.26,1.603,0.829,3.178-0.865,4.302c-1.068,0.708-0.067,2.441,1.009,1.727
							c1.811-1.201,3.563-2.782,2.771-5.159c-0.556-1.666-2.154-2.778-2.955-4.307c-1.245-2.375-1.221-5.047-0.35-7.532
							C375.007,229.17,373.075,228.646,372.652,229.855L372.652,229.855z"/>
					</g>
					<g>
						<path style="fill:#DB7D6E;" d="M341.384,226.009c-3.97-0.164-4.612,7.746-4.267,10.354c0.463,3.492,3.059,8.241,7.138,6.251
							c1.157-0.564,0.144-2.29-1.009-1.727c-1.324,0.646-2.606-0.77-3.153-1.766c-0.796-1.45-1.085-3.014-1.033-4.648
							c0.032-1.017,0.542-6.537,2.325-6.464C342.671,228.062,342.668,226.062,341.384,226.009L341.384,226.009z"/>
					</g>
					<g>
						<path style="fill:#1B333F;" d="M357.322,223.334c2.1-2.543,5.325-3.568,8.496-2.62c1.236,0.37,1.764-1.56,0.532-1.929
							c-3.793-1.134-7.914,0.072-10.442,3.134C355.094,222.905,356.502,224.328,357.322,223.334L357.322,223.334z"/>
					</g>
					<g>
						<path style="fill:#1B333F;" d="M381.444,222.446c1.895-1.286,4.066-1.73,6.304-1.2c1.252,0.296,1.786-1.632,0.532-1.929
							c-2.729-0.646-5.517-0.178-7.845,1.402C379.376,221.438,380.375,223.171,381.444,222.446L381.444,222.446z"/>
					</g>
					<g>
						<path style="fill:#DB7D6E;" d="M363.435,250.62c3.781,2.405,8.097,3.444,12.558,2.989c1.268-0.13,1.281-2.131,0-2
							c-4.145,0.423-8.026-0.475-11.548-2.716C363.355,248.201,362.351,249.931,363.435,250.62L363.435,250.62z"/>
					</g>
					<circle style="fill:#1B333F;" cx="363.717" cy="234.368" r="2.367"/>
					<circle style="fill:#1B333F;" cx="384.477" cy="234.243" r="2.367"/>
				</g>
				<g>
					<path style="fill:#FFA58B;" d="M388.993,409.063c2.007-2.294,7.69,3.517,11.806,4.441c1.951-3.254-5.559-9.186-10.686-9.592
						c4.333-3.381,9.987-5.021,15.456-4.481c4.181-0.103,3.181-3.827-0.824-4.322c-4.425-0.272-8.898,0.236-13.149,1.493
						c4.688-5.551,12.526-5.551,11.8-8.278c-1.215-2.088-4.355-1.593-6.561-0.608c-4.755,2.123-7.457,3.335-12.809,7.388
						c-4.15,3.143-10.606,18.481-11.327,18.484c-3.227,0.016-6.453,0.032-9.68,0.049c-2.059,4.82-3.477,10.342-3.195,15.58
						c4.837,1.446,14.321,4.292,19.427,2.137C386.358,428.354,387.441,415.41,388.993,409.063z"/>
					<path style="fill:#FAFDFC;" d="M358.75,409.5l12,2.396c0,0-1.738,14.854-5.279,21.987L352.25,431L358.75,409.5z"/>
					<g>
						<path style="fill:#416C8C;" d="M304.898,399.013c2.026-13.509,5.26-26.836,9.652-39.771
							c6.087-17.926,14.476-37.165,8.174-55.017c-2.142-6.067-7.151-12.056-13.273-12.56c-8.73,5.788-18.061,13.386-22.238,30.827
							c-1.497,6.252-20.755,70.662-14.938,101.672c19.115,11.116,65.725,11.825,87.512,11.116
							c3.219-6.117,5.503-21.185,6.753-26.865C344.579,402.445,326.748,405.377,304.898,399.013z"/>
					</g>
					<g>
						<path style="fill:#4C779E;" d="M291.06,408.379c1.787-1.321,3.573-2.642,5.36-3.964c1.024-0.757,0.027-2.494-1.009-1.727
							c-1.787,1.321-3.573,2.642-5.36,3.964C289.027,407.409,290.023,409.146,291.06,408.379L291.06,408.379z"/>
					</g>
					<g>
						<path style="fill:#4C779E;" d="M298.995,413.277c1.023-2.757,2.705-5.125,4.914-7.057c0.971-0.849-0.449-2.259-1.414-1.414
							c-2.478,2.167-4.285,4.858-5.429,7.939C296.618,413.954,298.551,414.475,298.995,413.277L298.995,413.277z"/>
					</g>
				</g>
			</g>
			<g>
				<g>
					<path style="fill:#EAA747;" d="M565.379,87.131c-0.918,1.412,0.233,5.102,0.425,6.582c0.608,4.702,1.302,9.394,2.025,14.08
						c0.615,3.986,1.185,7.999,1.987,11.954c0.33,1.627,0.253,2.587,1.849,3.034c2.418,0.676,6.774-0.724,9.205-1.019
						c5.465-0.663,10.927-1.35,16.391-2.024c12.815-1.582,25.636-3.202,38.497-4.377c0.696-0.064,1.075-0.585,0.964-1.266
						c-1.746-10.713-2.513-21.626-4.546-32.287c-0.364-1.91-0.346-2.471-2.164-2.916c-2.439-0.597-5.952,0.302-8.399,0.536
						c-18.546,1.773-37.29,3.955-55.637,7.243c-1.265,0.227-0.729,2.154,0.532,1.929c17.242-3.089,34.809-5.08,52.226-6.883
						c3.146-0.326,6.314-0.704,9.478-0.803c0.469-0.015,1.677-0.267,2.121,0.009c-0.769-0.478-0.002,1.934,0.126,2.746
						c1.62,10.293,2.658,20.672,4.334,30.958c0.321-0.422,0.643-0.844,0.964-1.266c-20.547,1.876-40.951,4.988-61.461,7.173
						c-0.758,0.081-1.874,0.387-2.632,0.247c0.954,0.176,0.266,0.677,0.176-1.07c-0.178-3.456-1.249-7.113-1.786-10.537
						c-0.693-4.419-1.355-8.844-1.959-13.276c-0.186-1.364-1.468-7.02-0.989-7.756C567.81,87.058,566.079,86.055,565.379,87.131
						L565.379,87.131z"/>
				</g>
				<g>
					<path style="fill:#EAA747;" d="M565.738,88.499c11.47,8.306,24.556,13.801,36.299,21.623c0.375,0.25,0.901,0.135,1.212-0.156
						c9.877-9.276,18.887-19.414,28.226-29.219c0.888-0.932-0.524-2.348-1.414-1.414c-5.269,5.532-10.441,11.154-15.704,16.691
						c-2.232,2.348-4.482,4.681-6.774,6.971c-1.114,1.113-2.201,2.358-3.424,3.358c-1.97,1.61-1.42,1.351-3.509,0.497
						c-5.358-2.191-10.615-5.975-15.699-8.791c-6.256-3.464-12.406-7.088-18.203-11.286
						C565.703,86.016,564.704,87.75,565.738,88.499L565.738,88.499z"/>
				</g>
				<g>
					<path style="fill:#EAA747;" d="M572.038,122.478c6.699-6.357,13.595-12.499,20.164-18.993c0.917-0.906-0.498-2.32-1.414-1.414
						c-6.568,6.494-13.465,12.637-20.164,18.993C569.688,121.952,571.104,123.364,572.038,122.478L572.038,122.478z"/>
				</g>
				<g>
					<path style="fill:#EAA747;" d="M612.081,101.307c7.453,4.563,15.217,8.671,22.092,14.106c0.999,0.79,2.424-0.616,1.414-1.414
						c-7.016-5.547-14.891-9.762-22.496-14.419C611.99,98.906,610.984,100.635,612.081,101.307L612.081,101.307z"/>
				</g>
			</g>
			<g>
				<g>
					<path style="fill:#FEFEFE;" d="M529.797,49.428c2.423,9.709,5.888,19.106,8.624,28.724c0.162,0.568,0.69,0.775,1.23,0.698
						c17.981-2.556,36.143-7.518,53.496-12.837c0.51-0.156,0.854-0.698,0.698-1.23c-1.809-6.176-3.434-12.4-5.138-18.605
						c-0.63-2.294-1.452-9.993-3.885-10.778c-0.931-0.3-2.877,0.463-3.788,0.639c-2.988,0.58-5.965,1.214-8.941,1.85
						c-8.167,1.747-16.318,3.577-24.436,5.539c-5.691,1.375-11.734,2.51-17.162,4.768c-1.171,0.487-0.657,2.423,0.532,1.929
						c11.619-4.835,25.107-6.715,37.345-9.387c3.079-0.672,6.161-1.334,9.247-1.972c1.496-0.309,4.723-1.632,6.221-1.226
						c1.58,0.428-0.282-0.493,0.603,0.979c1.526,2.535,1.96,6.803,2.745,9.691c1.552,5.709,3.066,11.426,4.729,17.104
						c0.233-0.41,0.466-0.82,0.698-1.23c-17.353,5.319-35.516,10.282-53.496,12.837c0.41,0.233,0.82,0.466,1.23,0.698
						c-2.736-9.618-6.201-19.015-8.624-28.724C531.414,47.649,529.485,48.177,529.797,49.428L529.797,49.428z"/>
				</g>
				<g>
					<path style="fill:#FEFEFE;" d="M530.054,49.87c3.425,2.664,7.129,4.928,10.893,7.079c1.648,0.942,3.62,2.559,5.537,2.728
						c1.223,0.108,2.969-0.623,4.154-0.871c3.317-0.696,6.633-1.391,9.95-2.087c3.403-0.714,6.805-1.427,10.208-2.141
						c1.856-0.389,4.635-0.454,6.327-1.327c1.217-0.628,1.298-1.09,1.915-2.509c2.044-4.694,4.222-9.333,6.68-13.826
						c0.618-1.13-1.108-2.14-1.727-1.009c-2.227,4.07-4.219,8.259-6.098,12.5c-0.42,0.948-0.738,2.343-1.375,3.169
						c-0.297,0.385,1.147-0.51-0.059-0.226c-4.95,1.167-9.97,2.091-14.947,3.135c-4.832,1.013-9.867,2.601-14.782,3.1
						c-1.119,0.114-0.245,0.14-0.235,0.143c-1.057-0.301-2.143-1.159-3.1-1.694c-4.104-2.296-8.209-4.686-11.927-7.578
						C530.464,47.674,529.039,49.08,530.054,49.87L530.054,49.87z"/>
				</g>
			</g>
			<g>
				<path style="fill:#FEFEFE;" d="M275,65.333c-15.333,14.6-14.506,30.723-12.694,37.277c10.669,38.6,58.636,32.825,99.572,33.781
					c1.879,5.876,8.4,16.985,11.797,26.755c5.442-9.77,17.742-27.615,17.742-27.615c3.136-1.041,22.917,4.519,39.92-9.61
					c8.278-6.879,12.393-15.489,12.567-26.251c0.319-19.736-12.567-42.5-52.487-50.631C328.414,36.205,287.782,52.551,275,65.333z"
					/>
				<g>
					<path style="fill:#4C779E;" d="M296.337,73.526c34.885-0.602,69.774-0.89,104.663-0.862c1.287,0.001,1.289-1.999,0-2
						c-34.89-0.027-69.779,0.26-104.663,0.862C295.051,71.548,295.047,73.549,296.337,73.526L296.337,73.526z"/>
				</g>
				<g>
					<path style="fill:#EAA747;" d="M289.667,93.333c40.889,0,81.778,0,122.667,0c1.287,0,1.289-2,0-2c-40.889,0-81.778,0-122.667,0
						C288.38,91.333,288.378,93.333,289.667,93.333L289.667,93.333z"/>
				</g>
				<g>
					<path style="fill:#4C779E;" d="M297,114c38.222,0,76.444,0,114.667,0c1.287,0,1.289-2,0-2c-38.222,0-76.444,0-114.667,0
						C295.713,112,295.711,114,297,114L297,114z"/>
				</g>
			</g>
			<g>
				<g>
					<path style="fill:#2E4F68;" d="M173.478,58.418c-13.994,0.34-26.881,9.166-29.14,23.508
						c-2.067,13.124,3.054,26.454,14.611,33.355c11.443,6.833,26.637,4.881,36.415-3.997c9.674-8.784,11.325-26.035,5.703-37.363
						C195.671,63.047,185.588,57.474,173.478,58.418c-1.275,0.099-1.286,2.1,0,2c12.385-0.965,22.75,5.467,27.011,17.165
						c5.586,15.336-1.491,33.232-17.194,38.485c-15.529,5.195-32.978-4.505-36.377-20.473c-1.727-8.113-1.342-16.835,3.517-23.861
						c5.084-7.35,14.362-11.106,23.044-11.317C174.762,60.387,174.767,58.386,173.478,58.418L173.478,58.418z"/>
				</g>
				<g>
					<path style="fill:#EAA747;" d="M134.704,86.918c0.142,12.187,3.762,23.949,12.851,32.446
						c8.547,7.991,18.901,11.016,30.476,9.679c11.512-1.329,21.963-6.567,28.524-16.359c6.254-9.334,7.298-20.949,5.897-31.832
						c-0.162-1.259-2.164-1.275-2,0c1.221,9.486,0.658,19.411-3.934,27.993c-5.783,10.807-16.585,16.779-28.487,18.197
						c-24.606,2.932-41.054-16.775-41.326-40.125C136.689,85.632,134.689,85.628,134.704,86.918L134.704,86.918z"/>
				</g>
				<g>
					<path style="fill:#EAA747;" d="M209.345,87.053c0.837-2.044,1.718-3.869,2.97-5.696c-0.524,0.067-1.047,0.135-1.571,0.202
						c1.243,1.606,2.808,2.689,3.828,4.474c0.639,1.117,2.368,0.111,1.727-1.009c-1.114-1.947-2.79-3.134-4.141-4.879
						c-0.425-0.548-1.25-0.266-1.571,0.202c-1.351,1.97-2.27,3.971-3.172,6.174C206.929,87.712,208.863,88.231,209.345,87.053
						L209.345,87.053z"/>
				</g>
				<g>
					<path style="fill:#EAA747;" d="M131.826,74.563c0.829,2.395,1.548,4.666,2.962,6.795c0.281,0.422,0.904,0.683,1.368,0.359
						c2.04-1.423,3.075-3.746,5.164-5.056c1.088-0.682,0.085-2.414-1.009-1.727c-2.139,1.342-3.126,3.634-5.164,5.056
						c0.456,0.12,0.912,0.239,1.368,0.359c-1.326-1.996-1.984-4.074-2.761-6.317C133.336,72.822,131.403,73.342,131.826,74.563
						L131.826,74.563z"/>
				</g>
				<g>
					<path style="fill:#EAA747;" d="M136.616,81.119c2.544-16.045,15.115-28.09,31.049-30.706
						c18.124-2.976,36.636,5.774,41.574,24.28c0.331,1.242,2.261,0.715,1.929-0.532c-5.049-18.921-23.64-28.394-42.318-25.928
						c-17.264,2.279-31.4,14.932-34.162,32.355C134.488,81.846,136.415,82.388,136.616,81.119L136.616,81.119z"/>
				</g>
				<g>
					<path style="fill:#FEFEFE;" d="M173.584,87.505c1.222-0.044,2.337,1.067,2.268,2.317c-0.059,1.072-1.113,1.644-2.091,1.628
						c-2.651-0.043-2.207-3.663,0.089-3.981c1.269-0.176,0.729-2.103-0.532-1.929c-2.065,0.286-3.529,2.388-3.419,4.415
						c0.115,2.142,2.013,3.593,4.096,3.489c2.093-0.105,3.95-1.682,3.853-3.879c-0.098-2.21-2.034-4.14-4.264-4.061
						C172.301,85.551,172.295,87.551,173.584,87.505L173.584,87.505z"/>
				</g>
				<g>
					<path style="fill:#FEFEFE;" d="M170.855,90.43c-3.023,1.784-6.28,3.198-9.215,5.128c-1.071,0.704-0.07,2.437,1.009,1.727
						c2.935-1.93,6.192-3.343,9.215-5.128C172.972,91.503,171.967,89.773,170.855,90.43L170.855,90.43z"/>
				</g>
				<g>
					<path style="fill:#FEFEFE;" d="M174.584,86.505c0.227-4.648,0.279-9.3,0.47-13.948c0.053-1.287-1.947-1.285-2,0
						c-0.191,4.649-0.243,9.301-0.47,13.948C172.521,87.792,174.522,87.788,174.584,86.505L174.584,86.505z"/>
				</g>
				<g>
					<g>
						<g>
							<path style="fill:#2E4F68;" d="M175.372,68.584c0-1.333,0-2.667,0-4c0-1.287-2-1.289-2,0c0,1.333,0,2.667,0,4
								C173.372,69.871,175.372,69.874,175.372,68.584L175.372,68.584z"/>
						</g>
						<g>
							<path style="fill:#2E4F68;" d="M175.372,114.584c0-1.333,0-2.667,0-4c0-1.287-2-1.289-2,0c0,1.333,0,2.667,0,4
								C173.372,115.871,175.372,115.874,175.372,114.584L175.372,114.584z"/>
						</g>
					</g>
					<g>
						<g>
							<path style="fill:#2E4F68;" d="M195.372,90.584c1.333,0,2.667,0,4,0c1.287,0,1.289-2,0-2c-1.333,0-2.667,0-4,0
								C194.085,88.584,194.083,90.584,195.372,90.584L195.372,90.584z"/>
						</g>
						<g>
							<path style="fill:#2E4F68;" d="M149.372,90.584c1.333,0,2.667,0,4,0c1.287,0,1.289-2,0-2c-1.333,0-2.667,0-4,0
								C148.085,88.584,148.083,90.584,149.372,90.584L149.372,90.584z"/>
						</g>
					</g>
				</g>
				<g>
					<g>
						<g>
							<path style="fill:#2E4F68;" d="M185.506,71.772c0.652-1.163,1.304-2.326,1.956-3.489c0.63-1.124-1.097-2.133-1.727-1.009
								c-0.652,1.163-1.304,2.326-1.956,3.489C183.149,71.887,184.876,72.896,185.506,71.772L185.506,71.772z"/>
						</g>
						<g>
							<path style="fill:#2E4F68;" d="M163.008,111.895c0.652-1.163,1.304-2.326,1.956-3.489c0.63-1.124-1.097-2.133-1.727-1.009
								c-0.652,1.163-1.304,2.326-1.956,3.489C160.651,112.009,162.377,113.019,163.008,111.895L163.008,111.895z"/>
						</g>
					</g>
					<g>
						<g>
							<path style="fill:#2E4F68;" d="M192.184,100.719c1.163,0.652,2.326,1.304,3.489,1.956c1.124,0.63,2.133-1.097,1.009-1.727
								c-1.163-0.652-2.326-1.304-3.489-1.956C192.069,98.362,191.06,100.089,192.184,100.719L192.184,100.719z"/>
						</g>
						<g>
							<path style="fill:#2E4F68;" d="M152.061,78.221c1.163,0.652,2.326,1.304,3.489,1.956c1.124,0.63,2.133-1.097,1.009-1.727
								c-1.163-0.652-2.326-1.304-3.489-1.956C151.947,75.863,150.937,77.59,152.061,78.221L152.061,78.221z"/>
						</g>
					</g>
				</g>
				<g>
					<g>
						<g>
							<path style="fill:#2E4F68;" d="M164.964,70.763c-0.652-1.163-1.304-2.326-1.956-3.489c-0.63-1.123-2.358-0.116-1.727,1.009
								c0.652,1.163,1.304,2.326,1.956,3.489C163.867,72.895,165.595,71.888,164.964,70.763L164.964,70.763z"/>
						</g>
						<g>
							<path style="fill:#2E4F68;" d="M187.463,110.886c-0.652-1.163-1.304-2.326-1.956-3.489c-0.63-1.123-2.358-0.116-1.727,1.009
								c0.652,1.163,1.304,2.326,1.956,3.489C186.365,113.018,188.093,112.011,187.463,110.886L187.463,110.886z"/>
						</g>
					</g>
					<g>
						<g>
							<path style="fill:#2E4F68;" d="M155.55,98.992c-1.163,0.652-2.326,1.304-3.489,1.956c-1.123,0.63-0.116,2.358,1.009,1.727
								c1.163-0.652,2.326-1.304,3.489-1.956C157.682,100.089,156.675,98.361,155.55,98.992L155.55,98.992z"/>
						</g>
						<g>
							<path style="fill:#2E4F68;" d="M195.673,76.494c-1.163,0.652-2.326,1.304-3.489,1.956c-1.123,0.63-0.116,2.358,1.009,1.727
								c1.163-0.652,2.326-1.304,3.489-1.956C197.805,77.591,196.798,75.863,195.673,76.494L195.673,76.494z"/>
						</g>
					</g>
				</g>
			</g>
			<g>
				<g>
					<path style="fill:#2E4F68;" d="M460.024,77.461c3.82,5.161,7.57,10.386,11.544,15.43c2.038,2.587,2.386,3.174,5.151,1.526
						c11.571-6.895,22.838-14.297,34.398-21.213c1.103-0.66,0.099-2.39-1.009-1.727c-10.533,6.301-20.892,12.887-31.335,19.334
						c-1.2,0.741-2.86,2.253-4.246,2.587c-1.252,0.302,0.914,0.597-0.038-0.056c-0.791-0.543-1.655-2.054-2.193-2.751
						c-3.593-4.653-7.048-9.414-10.544-14.14C460.994,75.429,459.257,76.425,460.024,77.461L460.024,77.461z"/>
				</g>
				<g>
					<path style="fill:#2E4F68;" d="M511.117,71.478c-0.439-0.246-1.718-2.294-2.265-3.034c-1.555-2.104-3.092-4.221-4.627-6.34
						c-2.082-2.874-4.157-5.753-6.225-8.637c-0.743-1.037-2.479-0.039-1.727,1.009c2.349,3.277,4.707,6.549,7.076,9.812
						c1.519,2.092,3.037,4.186,4.585,6.256c0.58,0.775,1.288,2.165,2.172,2.66C511.232,73.834,512.242,72.107,511.117,71.478
						L511.117,71.478z"/>
				</g>
				<g>
					<path style="fill:#2E4F68;" d="M461.392,77.82c12.123-7.583,24.36-15.039,36.25-22.985c1.065-0.712,0.065-2.445-1.009-1.727
						c-11.89,7.946-24.127,15.402-36.25,22.985C459.294,76.774,460.297,78.505,461.392,77.82L461.392,77.82z"/>
				</g>
				<g>
					<path style="fill:#2E4F68;" d="M460.887,77.957c9.262,0.327,18.573,0.782,27.824,0c1.273-0.108,1.285-2.109,0-2
						c-9.25,0.782-18.562,0.327-27.824,0C459.6,75.911,459.602,77.911,460.887,77.957L460.887,77.957z"/>
				</g>
				<g>
					<path style="fill:#2E4F68;" d="M489.689,77.322c2.088-7.835,5.044-15.434,8.312-22.845c0.514-1.167-1.208-2.186-1.727-1.009
						c-3.338,7.571-6.381,15.319-8.514,23.323C487.428,78.035,489.357,78.566,489.689,77.322L489.689,77.322z"/>
				</g>
			</g>
			<g>
				<g>
					<path style="fill:#2E4F68;" d="M632.782,36.947c-0.788,7.578-1.699,15.156-2.246,22.757c-0.284,3.942-0.227,4.357,3.529,5.104
						c15.542,3.089,31.174,5.713,46.699,8.89c1.256,0.257,1.794-1.67,0.532-1.929c-14.594-2.986-29.271-5.557-43.902-8.35
						c-1.501-0.287-3.82-0.301-5.184-1.031c-0.048-0.026-0.063,0.845,0.194-0.605c0.193-1.088,0.146-2.271,0.236-3.377
						c0.584-7.164,1.4-14.31,2.143-21.459C634.915,35.668,632.914,35.678,632.782,36.947L632.782,36.947z"/>
				</g>
				<g>
					<path style="fill:#2E4F68;" d="M681.994,72.467c-0.263-0.939,0.306-3.374,0.427-4.541c0.317-3.055,0.663-6.108,1.012-9.16
						c0.491-4.306,0.994-8.612,1.508-12.915c0.152-1.275-1.849-1.264-2,0c-0.553,4.631-1.094,9.263-1.62,13.897
						c-0.338,2.975-0.677,5.95-0.977,8.929c-0.128,1.264-0.633,3.055-0.278,4.322C680.412,74.236,682.343,73.71,681.994,72.467
						L681.994,72.467z"/>
				</g>
				<g>
					<path style="fill:#2E4F68;" d="M633.516,37.912c16.692,3.069,33.38,6.345,50.159,8.904c1.259,0.192,1.802-1.735,0.532-1.929
						c-16.779-2.558-33.467-5.835-50.159-8.904C632.79,35.752,632.25,37.679,633.516,37.912L633.516,37.912z"/>
				</g>
				<g>
					<path style="fill:#2E4F68;" d="M633.277,37.811c8.275,5.541,16.378,11.311,24.335,17.299c1.029,0.774,2.026-0.962,1.009-1.727
						c-7.957-5.988-16.06-11.758-24.335-17.299C633.214,35.366,632.212,37.097,633.277,37.811L633.277,37.811z"/>
				</g>
				<g>
					<path style="fill:#2E4F68;" d="M658.315,55.308c8.998-1.901,17.69-4.975,26.131-8.594c1.179-0.506,0.162-2.229-1.009-1.727
						c-8.279,3.55-16.83,6.529-25.653,8.392C656.524,53.646,657.057,55.574,658.315,55.308L658.315,55.308z"/>
				</g>
			</g>
			<g>
				<g>
					<path style="fill:#FEFEFE;" d="M592.66,136.918c-0.002,15.61-0.307,31.263,0.267,46.865c0.047,1.283,2.047,1.289,2,0
						c-0.574-15.602-0.27-31.255-0.267-46.865C594.66,135.631,592.66,135.629,592.66,136.918L592.66,136.918z"/>
				</g>
				<g>
					<path style="fill:#2E4F68;" d="M600.012,136.816c0,2.853,0.01,5.705,0.035,8.558c0.005,0.525,0.455,1.021,1,1
						c10.377-0.406,20.8-0.158,31.181,0c0.541,0.008,1-0.465,1-1c0-3.03,0-6.06,0-9.09c0-0.534-0.458-1.009-1-1
						c-10.405,0.18-20.81,0.368-31.216,0.532c-1.286,0.02-1.29,2.02,0,2c6.64-0.105,13.279-0.223,19.919-0.337
						c3.108-0.053,6.675,0.375,9.736-0.168c0.754-0.134,1.902,0.392,1.038-0.46c-0.868-0.856-0.477,2.674-0.477,3.495
						c0,1.257-0.395,3.343,0,4.525c0.276,0.826,0.724-0.51,0.781-0.5c-0.343-0.064-0.747,0.078-1.081-0.015
						c-2.874-0.803-7.118-0.085-10.089-0.106c-4.474-0.033-8.948-0.053-13.422-0.011c-0.798,0.007-5.166,0.605-5.636,0.108
						c-0.379-0.401,0.231-6.816,0.231-7.529C602.012,135.529,600.012,135.527,600.012,136.816L600.012,136.816z"/>
				</g>
				<g>
					<path style="fill:#EAA747;" d="M600.012,149.619c0,2.853,0.015,5.705,0.052,8.558c0.007,0.529,0.453,1.015,1,1
						c15.359-0.421,30.753-0.159,46.115,0c0.541,0.006,1-0.463,1-1c0-3.03,0-6.06,0-9.09c0-0.536-0.458-1.006-1-1
						c-15.389,0.18-30.778,0.368-46.167,0.532c-1.286,0.014-1.289,2.014,0,2c14.404-0.153,28.808-0.329,43.212-0.497
						c0.696-0.008,1.783,0.189,2.45-0.029c0.124-0.041,0.337-0.009,0.472-0.006c-1.551-0.038-0.511-1.453-0.967,0.437
						c-0.368,1.526-0.207,4.274,0,5.85c0.072,0.547-0.054,1.12,0,1.67c-0.077-0.787,1.529-0.547,0.546-0.872
						c-2.057-0.68-5.445-0.049-7.588-0.065c-4.475-0.034-8.951-0.06-13.426-0.075c-5.393-0.018-10.786-0.025-16.178,0.015
						c-1.876,0.014-4.792,0.623-6.579,0.084c-1.414-0.427-1.045-0.114-0.926-2.104c0.107-1.782-0.015-3.624-0.015-5.408
						C602.012,148.332,600.012,148.33,600.012,149.619L600.012,149.619z"/>
				</g>
				<g>
					<path style="fill:#2E4F68;" d="M600.012,162.422c0.001,2.853,0.022,5.705,0.075,8.558c0.01,0.533,0.45,1.011,1,1
						c22.164-0.43,44.354-0.159,66.52,0c0.541,0.004,1-0.461,1-1c0-3.03,0-6.06,0-9.09c0-0.537-0.458-1.004-1-1
						c-22.198,0.18-44.397,0.369-66.595,0.532c-1.286,0.009-1.289,2.009,0,2c20.242-0.148,40.484-0.321,60.726-0.484
						c1.349-0.011,2.775,0.11,4.118-0.033c2.48-0.264,0.653,0.448,0.751-0.882c-0.164,2.217,0,4.508,0,6.731
						c0,0.365-0.186,1.156,0,1.438c0.842,1.275-2.022-0.146,0.973-0.212c-0.186,0.004-0.614,0.071-0.76-0.005
						c-0.843-0.44-3.006-0.02-3.942-0.025c-2.361-0.014-4.723-0.028-7.084-0.04c-6.162-0.032-12.324-0.057-18.486-0.072
						c-7.471-0.018-14.942-0.025-22.413,0.006c-3.292,0.014-6.584,0.033-9.876,0.075c-0.498,0.006-1.202,0.114-1.668,0.023
						c-0.263,0.004-0.525,0.008-0.788,0.012c-0.833,0.25-1.002,0.024-0.508-0.678c-0.701-1.339-0.043-5.374-0.043-6.852
						C602.012,161.135,600.012,161.133,600.012,162.422L600.012,162.422z"/>
				</g>
				<g>
					<path style="fill:#FEFEFE;" d="M600.012,175.226c0.001,2.853,0.018,5.705,0.062,8.558c0.008,0.531,0.452,1.013,1,1
						c18.301-0.425,36.632-0.159,54.936,0c0.541,0.005,1-0.462,1-1c0-3.03,0-6.06,0-9.09c0-0.537-0.458-1.005-1-1
						c-18.333,0.18-36.665,0.369-54.998,0.532c-1.286,0.011-1.289,2.011,0,2c16.933-0.151,33.865-0.325,50.798-0.491
						c0.834-0.008,2.449,0.272,3.245-0.032c0.225-0.086,0.537,0.037,0.778-0.008c-0.656,0.121-0.226-1.171-0.822-0.213
						c-0.658,1.056,0,4.85,0,6.075c0,0.667-0.116,1.44,0,2.094c-0.149-0.839,1.542-0.491,0.495-0.872
						c-2.295-0.836-6.423-0.049-8.835-0.064c-5.239-0.033-10.477-0.059-15.716-0.075c-6.292-0.019-12.584-0.026-18.876,0.008
						c-2.7,0.014-5.6,0.359-8.285,0.081c-1.961-0.203-1.494,0.551-1.756-1.374c-0.267-1.97-0.027-4.144-0.027-6.13
						C602.012,173.939,600.012,173.937,600.012,175.226L600.012,175.226z"/>
				</g>
			</g>
			<g>
				<g>
					<path style="fill:#EAA747;" d="M37.443,251.691c16.968,19.552,34.398,38.709,51.821,57.855c0.82,0.901,2.037,2.982,3.378,3.108
						c1.611,0.152,3.983-2.4,5.099-3.278c7.998-6.292,15.542-13.208,23.053-20.064c4.197-3.831,8.373-7.689,12.447-11.651
						c1.688-1.641,4.59-3.685,5.539-5.929c0.188-0.444,0.166-0.84-0.156-1.212c-17.986-20.723-36.001-41.427-54.261-61.908
						c-0.858-0.963-2.269,0.456-1.414,1.414c13.469,15.107,26.781,30.355,40.08,45.61c4.205,4.823,8.195,10.553,12.938,14.866
						c0.367,0.334,0.653,0.773,0.99,1.139c0.617,0.671,0.471-1.046-0.118-0.558c-1.353,1.12-2.526,2.719-3.783,3.961
						c-10.308,10.185-21.166,19.929-32.257,29.252c-1.973,1.659-3.948,3.342-6.032,4.863c-0.585,0.427-1.234,1.034-1.913,1.308
						c-0.85,0.342,0.957,0.796-0.008,0.046c-3.832-2.979-7.072-7.774-10.322-11.359c-14.673-16.185-29.349-32.378-43.668-48.878
						C38.013,249.303,36.603,250.723,37.443,251.691L37.443,251.691z"/>
				</g>
				<g>
					<path style="fill:#F7B852;" d="M38.858,251.691c4.298-3.523,8.394-7.229,12.283-11.199c0.901-0.92-0.512-2.336-1.414-1.414
						c-3.889,3.97-7.985,7.675-12.283,11.199C36.447,251.093,37.87,252.501,38.858,251.691L38.858,251.691z"/>
				</g>
				<g>
					<path style="fill:#F7B852;" d="M72.053,220.827c3.72-3.777,7.718-7.658,12.108-10.645c1.058-0.72,0.058-2.454-1.009-1.727
						c-4.538,3.088-8.668,7.055-12.513,10.958C69.735,220.331,71.148,221.746,72.053,220.827L72.053,220.827z"/>
				</g>
				<g>
					<path style="fill:#FEFEFE;" d="M53.859,243.925c-2.358,2.528-5.191,4.567-7.548,7.096c-0.384,0.412-0.37,0.998,0,1.414
						c10.077,11.324,20.003,22.782,30.061,34.123c3.945,4.448,7.874,8.923,11.966,13.237c1.135,1.197,2.801,3.805,4.674,3.396
						c1.948-0.425,4.754-4.019,6.167-5.269c4.407-3.898,8.78-7.834,13.142-11.782c3.954-3.579,7.903-7.164,11.807-10.797
						c1.088-1.013,4.58-3.252,4.669-4.968c0.052-1.007-1.938-2.671-2.436-3.265c-1.842-2.197-3.685-4.394-5.528-6.59
						c-4.233-5.043-8.469-10.083-12.705-15.123c-7.969-9.481-15.939-18.961-23.894-28.454c-0.368-0.439-1.031-0.322-1.414,0
						c-2.76,2.322-5.536,4.631-8.23,7.029c-0.963,0.858,0.455,2.268,1.414,1.414c2.161-1.924,4.336-4.09,6.707-5.745
						c0.178-0.125,0.99-1.037,1.257-1.059c-0.87,0.073,0.89,2.142,0.996,2.333c1.311,2.365,3.776,4.502,5.528,6.59
						c7.348,8.754,14.705,17.501,22.057,26.251c3.406,4.054,6.811,8.108,10.214,12.164c0.535,0.638,4.181,4.297,4.181,3.953
						c0.001,0.27-1.005,0.978-1.149,1.153c-2.763,3.354-6.629,6.189-9.832,9.11c-7.641,6.968-15.119,14.518-23.321,20.832
						c-0.752,0.579,0.169,0.906-0.653-0.296c-1.098-1.606-2.931-3.021-4.253-4.456c-4.468-4.848-8.83-9.797-13.194-14.739
						c-5.94-6.727-11.85-13.48-17.775-20.22c-2.399-2.728-5.97-5.644-7.762-8.797c0.331,0.583-0.726-1.243-0.788-0.551
						c0.052-0.576,1.854-1.739,2.353-2.19c1.588-1.436,3.243-2.812,4.705-4.38C56.151,244.398,54.739,242.981,53.859,243.925
						L53.859,243.925z"/>
				</g>
				<g>
					<path style="fill:#2E4F68;" d="M62.308,256.366c8.184-7.062,16.482-13.988,24.502-21.238c0.957-0.865-0.461-2.276-1.414-1.414
						c-8.02,7.25-16.318,14.176-24.502,21.238C59.917,255.794,61.337,257.204,62.308,256.366L62.308,256.366z"/>
				</g>
				<g>
					<path style="fill:#EAA747;" d="M70.572,264.108c7.557-6.842,15.225-13.554,22.928-20.231c0.974-0.845-0.445-2.254-1.414-1.414
						c-7.703,6.677-15.371,13.389-22.928,20.231C68.201,263.559,69.619,264.97,70.572,264.108L70.572,264.108z"/>
				</g>
				<g>
					<path style="fill:#2E4F68;" d="M79.021,272.345c7.274-6.367,14.572-12.705,21.877-19.037c0.974-0.845-0.445-2.254-1.414-1.414
						c-7.305,6.332-14.603,12.67-21.877,19.037C76.637,271.78,78.056,273.19,79.021,272.345L79.021,272.345z"/>
				</g>
				<g>
					<path style="fill:#EAA747;" d="M86.904,281.001c7.095-6.553,14.363-12.909,21.803-19.068c0.992-0.821-0.429-2.229-1.414-1.414
						c-7.44,6.159-14.707,12.515-21.803,19.068C84.542,280.462,85.959,281.874,86.904,281.001L86.904,281.001z"/>
				</g>
				<g>
					<path style="fill:#2E4F68;" d="M94.605,289.886c7.095-6.553,14.363-12.909,21.803-19.068c0.992-0.821-0.429-2.229-1.414-1.414
						c-7.44,6.159-14.707,12.515-21.803,19.068C92.243,289.347,93.66,290.759,94.605,289.886L94.605,289.886z"/>
				</g>
				<g>
					<path style="fill:#2E4F68;" d="M46.288,235.768c3.464,3.58,6.659,8.482,10.731,11.354c2.711,1.912,4.514-1.386,6.53-3.37
						c3.001-2.954,5.985-5.925,9.047-8.817c1.461-1.379,6.174-4.278,6.385-6.305c0.14-1.343-1.744-2.959-2.524-3.854
						c-2.602-2.985-5.406-5.794-8.103-8.693c-0.878-0.945-2.29,0.472-1.414,1.414c1.766,1.899,10.433,9.454,9.575,11.351
						c-0.428,0.946-3.258,2.729-4.125,3.537c-1.202,1.121-2.39,2.255-3.573,3.396c-2.102,2.027-4.174,4.083-6.253,6.133
						c-0.859,0.847-2.815,3.649-3.999,3.854c0.078-0.013-1.562-1.475-2.337-2.281c-2.885-3.004-5.629-6.141-8.525-9.134
						C46.806,233.427,45.393,234.842,46.288,235.768L46.288,235.768z"/>
				</g>
				<g>
					<path style="fill:#2E4F68;" d="M47.703,235.768c1.799-2.179,4.18-3.643,5.981-5.824c0.332-0.402,0.429-1.022,0-1.414
						c-1.79-1.634-3.919-3.861-2.922-6.55c0.742-2.002,2.816-3.727,4.769-3.616c2.422,0.138,4.383,2.128,5.937,3.878
						c0.263,0.296,0.88,0.411,1.212,0.156c1.931-1.478,3.544-3.268,5.473-4.744c1.008-0.772,0.013-2.51-1.009-1.727
						c-1.28,0.98-2.856,2.073-3.813,3.396c-1.905,2.63,0.277,1.19-1.122,0.787c-0.527-0.152-1.321-1.245-1.732-1.58
						c-1.717-1.397-4.226-3.133-6.572-2.405c-2.246,0.698-4.62,3.705-5.342,5.847c-1.063,3.154,1.532,5.986,3.708,7.972
						c0-0.471,0-0.943,0-1.414c-1.799,2.179-4.18,3.643-5.981,5.824C45.475,235.339,46.882,236.762,47.703,235.768L47.703,235.768z"
						/>
				</g>
				<g>
					<path style="fill:#2E4F68;" d="M54.242,221.842c-0.908,1.105-0.963,2.823,0.172,3.819c1.081,0.949,2.875,0.841,3.81-0.267
						c0.348-0.412,0.405-1.01,0-1.414c-0.357-0.357-1.064-0.415-1.414,0c-0.259,0.307-0.737,0.496-1.077,0.191
						c-0.216-0.194-0.267-0.682-0.076-0.915c0.343-0.417,0.408-1.006,0-1.414C55.303,221.489,54.586,221.422,54.242,221.842
						L54.242,221.842z"/>
				</g>
				<g>
					<path style="fill:#FEFEFE;" d="M54.661,235.63c0.908-0.787,1.815-1.573,2.723-2.36c0.974-0.845-0.445-2.254-1.414-1.414
						c-0.908,0.787-1.815,1.573-2.723,2.36C52.272,235.061,53.692,236.47,54.661,235.63L54.661,235.63z"/>
				</g>
				<g>
					<path style="fill:#FEFEFE;" d="M57.412,238.381c0.559-0.484,1.117-0.968,1.676-1.452c0.408-0.354,0.363-1.051,0-1.414
						c-0.405-0.405-1.005-0.355-1.414,0c-0.559,0.484-1.117,0.968-1.676,1.452c-0.408,0.354-0.363,1.051,0,1.414
						C56.403,238.786,57.003,238.736,57.412,238.381L57.412,238.381z"/>
				</g>
				<g>
					<path style="fill:#FEFEFE;" d="M60.219,240.35c0.07-0.061,0.14-0.121,0.209-0.182c0.408-0.354,0.363-1.051,0-1.414
						c-0.405-0.405-1.005-0.355-1.414,0c-0.07,0.061-0.14,0.121-0.209,0.182c-0.408,0.354-0.363,1.051,0,1.414
						C59.21,240.755,59.81,240.705,60.219,240.35L60.219,240.35z"/>
				</g>
			</g>
			<g>
				<g>
					<path style="fill:#FEFEFE;" d="M161.75,249.234c-7.248,18.888-13.377,38.169-19.916,57.306
						c-0.191,0.558,0.225,1.032,0.698,1.23c9.345,3.917,18.944,7.294,28.567,10.458c3.089,1.016,7.207,3.813,8.97,0.369
						c3.517-6.869,5.353-15.23,7.768-22.527c3.763-11.367,7.415-22.775,10.766-34.27c0.164-0.563-0.203-1.029-0.698-1.23
						c-11.284-4.581-23.149-7.433-34.443-11.967c-1.194-0.479-1.713,1.454-0.532,1.929c11.294,4.534,23.159,7.386,34.443,11.967
						c-0.233-0.41-0.466-0.82-0.698-1.23c-5.349,18.345-11.184,36.637-17.718,54.598c-0.308,0.846-0.606,1.699-0.948,2.532
						c-0.354,0.865,1.087,0.259-0.009-0.126c-2.758-0.969-5.616-1.715-8.392-2.645c-8.935-2.995-17.853-6.143-26.546-9.786
						c0.233,0.41,0.466,0.82,0.698,1.23c6.54-19.138,12.668-38.419,19.916-57.306C164.141,248.563,162.208,248.042,161.75,249.234
						L161.75,249.234z"/>
				</g>
				<g>
					<path style="fill:#2E4F68;" d="M162.319,259.356c9.376,4.188,19.298,6.949,29.015,10.211c-0.233-0.41-0.466-0.82-0.698-1.23
						c-3.952,13.743-9.323,27.02-13.894,40.559c0.41-0.233,0.82-0.466,1.23-0.698c-6.092-1.842-12.103-3.92-18.075-6.118
						c-2.133-0.785-4.259-1.588-6.386-2.388c-0.894-0.337-2.98-1.232-2.796-0.696c-0.358-1.046,1.06-3.945,1.364-4.942
						c0.893-2.921,1.846-5.825,2.803-8.726c2.048-6.211,4.158-12.401,6.262-18.594c0.549-1.615,3.491-7.006,2.544-8.747
						c-0.615-1.131-2.343-0.123-1.727,1.009c-0.471-0.865-0.087-0.53-0.452,0.401c-0.318,0.813-0.556,1.671-0.834,2.498
						c-0.937,2.785-1.889,5.566-2.833,8.349c-2.261,6.659-4.528,13.318-6.667,20.018c-0.611,1.915-3.473,7.542-2.301,9.588
						c1.041,1.817,7.194,2.936,9.071,3.632c6.439,2.389,12.92,4.655,19.496,6.643c0.539,0.163,1.061-0.196,1.23-0.698
						c4.571-13.54,9.942-26.816,13.894-40.559c0.155-0.54-0.19-1.06-0.698-1.23c-9.548-3.205-19.323-5.894-28.537-10.01
						C162.163,257.108,161.144,258.831,162.319,259.356L162.319,259.356z"/>
				</g>
				<g>
					<path style="fill:#2E4F68;" d="M158.875,307.977c-0.518,1.741,0.845,3.19,2.324,3.871c1.319,0.608,3.4,0.923,4.294-0.55
						c1.14-1.878,0.33-4.235-1.58-5.16c-0.901-0.436-1.974-0.699-2.96-0.413C159.86,306.044,159.27,306.98,158.875,307.977
						c-0.474,1.197,1.459,1.716,1.929,0.532c0.465-1.172,1.58-1.048,2.508-0.422c0.41,0.277,0.667,0.634,0.691,1.143
						c0.014,0.288-0.02,0.895-0.267,1.065c-0.82,0.562-3.244-0.736-2.932-1.786C161.171,307.272,159.241,306.744,158.875,307.977
						L158.875,307.977z"/>
				</g>
				<g>
					<path style="fill:#FEFEFE;" d="M157.565,283.856c2.606,5.505,5.75,10.681,9.433,15.531c0.768,1.012,2.506,0.017,1.727-1.009
						c-3.683-4.851-6.827-10.027-9.433-15.531C158.742,281.684,157.017,282.698,157.565,283.856L157.565,283.856z"/>
				</g>
				<g>
					<path style="fill:#FEFEFE;" d="M162.924,273.08c3.678,5.904,7.356,11.808,11.033,17.713c0.679,1.09,2.41,0.087,1.727-1.009
						c-3.678-5.904-7.356-11.808-11.033-17.713C163.972,270.98,162.241,271.983,162.924,273.08L162.924,273.08z"/>
				</g>
				<g>
					<path style="fill:#FEFEFE;" d="M171.693,270.685c1.599,2.962,3.198,5.925,4.797,8.887c0.612,1.133,2.339,0.124,1.727-1.009
						c-1.599-2.962-3.198-5.925-4.797-8.887C172.808,268.543,171.081,269.552,171.693,270.685L171.693,270.685z"/>
				</g>
				<g>
					<path style="fill:#2E4F68;" d="M175.2,259.699c2.121,0.755,4.243,1.511,6.364,2.266c1.215,0.433,1.738-1.499,0.532-1.929
						c-2.121-0.755-4.243-1.511-6.364-2.266C174.517,257.337,173.994,259.269,175.2,259.699L175.2,259.699z"/>
				</g>
			</g>
			<g>
				<g>
					<path style="fill:#FEFEFE;" d="M61.061,155.67c-1.046-4.756,1.008-12.355,7.223-12.054c4.162,0.201,6.873,6.405,7.737,9.735
						c1.643,6.329,0.455,12.885,0.282,19.298c-0.272,10.1,2.713,19.46,13.035,23.004c8.161,2.802,22.45,2.942,27.823-5.118
						c4.629-6.943-1.387-15.33-9.386-13.498c-1.254,0.287-0.723,2.216,0.532,1.929c4.837-1.108,9.699,3.076,8.311,8.154
						c-1.417,5.185-7.161,7.007-11.811,7.669c-5.891,0.839-12.611,0.61-17.923-2.354c-12.124-6.766-7.625-21.563-8.047-32.778
						c-0.252-6.699-2.911-17.618-11.333-18.173c-7.068-0.466-9.543,9.389-8.371,14.717C59.409,157.458,61.338,156.927,61.061,155.67
						L61.061,155.67z"/>
				</g>
				<g>
					<path style="fill:#FEFEFE;" d="M108.306,178.966c9.844-3.396,18.34-9.81,24.772-17.967c1.79-2.27,2.802-4.985,6.131-4.297
						c2.309,0.477,4.015,2.636,4.782,4.733c0.936,2.559,0.991,5.784-0.191,8.267c-3.186,6.69-11.626,11.624-17.64,15.376
						c-6.254,3.901-13.33,8.213-20.658,9.649c-1.262,0.247-0.728,2.175,0.532,1.929c8.609-1.688,17.065-7.056,24.235-11.852
						c5.633-3.768,14.391-9.191,16.096-16.323c1.409-5.895-1.428-12.689-7.7-13.973c-1.349-0.276-2.511-0.444-3.624,0.236
						c-0.993,0.606-1.961,2.969-2.644,3.884c-1.225,1.639-2.552,3.209-3.947,4.707c-5.724,6.145-12.722,10.958-20.675,13.703
						C106.565,177.454,107.085,179.387,108.306,178.966L108.306,178.966z"/>
				</g>
				<g>
					<path style="fill:#FEFEFE;" d="M59.097,155.936c0.233,4.095,4.63,7.41,8.594,5.134c4.881-2.803,1.767-11.431-3.671-10.107
						c0.376,0.49,0.753,0.979,1.129,1.469c1.929-2.587,4.348-4.555,7.223-6.001c1.15-0.578,0.139-2.304-1.009-1.727
						c-3.21,1.614-5.796,3.843-7.941,6.718c-0.554,0.743,0.358,1.657,1.129,1.469c3.834-0.934,5.191,6.451,0.678,6.737
						c-2.397,0.152-3.998-1.308-4.133-3.693C61.024,154.656,59.024,154.648,59.097,155.936L59.097,155.936z"/>
				</g>
				<g>
					<path style="fill:#FEFEFE;" d="M66.487,161.496c3.726-2.427,7.341-5.015,11.007-7.531c1.055-0.724,0.055-2.458-1.009-1.727
						c-3.666,2.516-7.28,5.104-11.007,7.531C64.403,160.469,65.404,162.201,66.487,161.496L66.487,161.496z"/>
				</g>
				<g>
					<path style="fill:#FEFEFE;" d="M65.227,143.889c6.453-4.546,13.389-8.492,20.328-12.239
						c7.885-4.258,17.725-10.523,26.018-3.246c5.277,4.63,3.338,11.283,4.007,17.414c0.315,2.886,0.859,5.824,1.666,8.612
						c1.707,5.902,5.234,11.298,12.067,10.437c1.26-0.159,1.276-2.161,0-2c-9.73,1.226-11.767-12.693-11.904-19.904
						c-0.088-4.603,0.606-9.555-2.199-13.548c-2.416-3.44-6.459-5.671-10.573-6.258c-6.63-0.947-12.839,2.917-18.463,5.895
						c-7.507,3.974-15.006,8.215-21.956,13.112C63.174,142.898,64.172,144.632,65.227,143.889L65.227,143.889z"/>
				</g>
				<g>
					<path style="fill:#2E4F68;" d="M84.877,146.113c6.477-4.327,13.152-8.175,20.443-10.968c1.19-0.456,0.673-2.39-0.532-1.929
						c-7.453,2.855-14.297,6.744-20.921,11.169C82.803,145.097,83.803,146.83,84.877,146.113L84.877,146.113z"/>
				</g>
				<g>
					<path style="fill:#EAA747;" d="M87.618,157.559c6.274-4.192,13.128-8.556,20.165-11.346c1.182-0.469,0.667-2.404-0.532-1.929
						c-7.21,2.858-14.214,7.252-20.643,11.547C85.543,156.544,86.544,158.277,87.618,157.559L87.618,157.559z"/>
				</g>
				<g>
					<path style="fill:#2E4F68;" d="M87.82,170.994c7.158-6.126,15.927-11.093,24.855-14.094c1.214-0.408,0.693-2.34-0.532-1.929
						c-9.297,3.125-18.287,8.233-25.737,14.608C85.426,170.418,86.847,171.827,87.82,170.994L87.82,170.994z"/>
				</g>
				<g>
					<path style="fill:#EAA747;" d="M90.804,182.376c6.78-5.933,15.402-11.026,23.298-15.344c1.13-0.618,0.121-2.345-1.009-1.727
						c-8.044,4.399-16.791,9.609-23.702,15.656C88.419,181.811,89.839,183.22,90.804,182.376L90.804,182.376z"/>
				</g>
				<g>
					<path style="fill:#FEFEFE;" d="M136.601,161.371c1.044,0.107,2.06,0.669,2.693,1.509c0.328,0.434,0.859,0.648,1.368,0.359
						c0.427-0.243,0.683-0.938,0.359-1.368c-1.1-1.458-2.6-2.313-4.42-2.499C135.321,159.24,135.331,161.241,136.601,161.371
						L136.601,161.371z"/>
				</g>
				<g>
					<path style="fill:#FEFEFE;" d="M134.353,163.514c0.671,0.409,1.343,0.818,2.014,1.227c1.102,0.672,2.108-1.057,1.009-1.727
						c-0.671-0.409-1.343-0.818-2.014-1.227C134.26,161.116,133.254,162.845,134.353,163.514L134.353,163.514z"/>
				</g>
				<g>
					<path style="fill:#FEFEFE;" d="M131.597,166.275c0.583,0.418,1.165,0.835,1.748,1.253c0.439,0.315,1.113,0.077,1.368-0.359
						c0.294-0.503,0.082-1.053-0.359-1.368c-0.583-0.418-1.165-0.835-1.748-1.253c-0.439-0.315-1.113-0.077-1.368,0.359
						C130.944,165.41,131.157,165.959,131.597,166.275L131.597,166.275z"/>
				</g>
				<g>
					<path style="fill:#FEFEFE;" d="M129.347,169.418c1.287,0,1.289-2,0-2C128.06,167.418,128.058,169.418,129.347,169.418
						L129.347,169.418z"/>
				</g>
				<g>
					<path style="fill:#FEFEFE;" d="M126.597,172.168c1.287,0,1.289-2,0-2C125.31,170.168,125.308,172.168,126.597,172.168
						L126.597,172.168z"/>
				</g>
			</g>
			<g>
				<g>
					<path style="fill:#2E4F68;" d="M554.905,256.053c-0.135-7.702-0.465-15.401-0.776-23.097c-0.073-1.805,0.541-5.643-0.302-7.256
						c-0.235-0.449-1.185,0.094-0.294,0.505c0.9,0.415,3.073,0,4.048,0c2.323,0,6.419,0.829,8.583,0
						c1.305-0.5,0.205-0.969-0.011-0.415c-0.297,0.762,0,2.439,0,3.248c0,9.472,0,18.944,0,28.416c0,1.287,2,1.289,2,0
						c0-10.75,0-21.499,0-32.249c0-0.541-0.458-1-1-1c-4.782,0-9.565,0-14.347,0c-0.523,0-1.023,0.458-1,1
						c0.445,10.278,0.919,20.563,1.099,30.849C552.928,257.339,554.928,257.343,554.905,256.053L554.905,256.053z"/>
				</g>
				<g>
					<path style="fill:#EAA747;" d="M580.794,257.453c-0.014-10.04-0.295-20.075-0.4-30.113c-0.023-2.237-0.027-4.474-0.027-6.711
						c0-2.549,0.539-2.116,2.916-2.197c1.883-0.064,3.767-0.128,5.651-0.168c0.578-0.012,3.978,0.242,3.316-0.472
						c0.683,0.736,0.244,4.841,0.273,5.763c0.107,3.377,0.179,6.756,0.25,10.134c0.168,7.951,0.295,15.903,0.48,23.853
						c0.03,1.285,2.03,1.29,2,0c-0.277-11.911-0.342-23.833-0.789-35.739c-0.057-1.525,0.407-4.49-1.046-5.469
						c-0.926-0.624-3.504-0.092-4.485-0.071c-3.182,0.068-6.363,0.19-9.544,0.309c-0.544,0.02-0.995,0.442-1,1
						c-0.128,13.295,0.386,26.586,0.404,39.881C578.796,258.74,580.796,258.743,580.794,257.453L580.794,257.453z"/>
				</g>
				<g>
					<path style="fill:#2E4F68;" d="M607.883,257.453c-0.064-8.323-0.961-16.61-1.025-24.932c-0.333,0.333-0.667,0.667-1,1
						c4.272,0.175,8.535-0.175,12.807,0c-0.333-0.333-0.667-0.667-1-1c0.844,8.309,1.437,16.577,1.47,24.932
						c0.005,1.287,2.005,1.289,2,0c-0.033-8.356-0.626-16.623-1.47-24.932c-0.056-0.556-0.413-0.976-1-1
						c-4.272-0.175-8.535,0.175-12.807,0c-0.537-0.022-1.004,0.476-1,1c0.064,8.323,0.961,16.61,1.025,24.932
						C605.893,258.74,607.893,258.743,607.883,257.453L607.883,257.453z"/>
				</g>
				<g>
					<path style="fill:#2E4F68;" d="M553.14,249.029c4.442,2.721,8.883,5.442,13.325,8.164c1.101,0.674,2.106-1.055,1.009-1.727
						c-4.442-2.721-8.883-5.442-13.325-8.164C553.049,246.628,552.043,248.357,553.14,249.029L553.14,249.029z"/>
				</g>
				<g>
					<path style="fill:#2E4F68;" d="M552.944,242.032c4.421,3.086,9.283,5.425,13.704,8.51c1.058,0.738,2.058-0.995,1.009-1.727
						c-4.421-3.086-9.283-5.425-13.704-8.51C552.896,239.567,551.895,241.3,552.944,242.032L552.944,242.032z"/>
				</g>
				<g>
					<path style="fill:#2E4F68;" d="M553.162,233.986c4.337,3.179,9.149,5.639,13.487,8.818c1.039,0.762,2.038-0.973,1.009-1.727
						c-4.337-3.179-9.149-5.639-13.487-8.818C553.132,231.498,552.133,233.232,553.162,233.986L553.162,233.986z"/>
				</g>
				<g>
					<path style="fill:#2E4F68;" d="M552.301,226.068c4.608,2.837,9.648,4.932,14.163,7.918c1.077,0.712,2.079-1.019,1.009-1.727
						c-4.515-2.986-9.555-5.081-14.163-7.918C552.212,223.665,551.206,225.394,552.301,226.068L552.301,226.068z"/>
				</g>
				<g>
					<path style="fill:#EAA747;" d="M580.297,249.772c4.674,2.532,9.185,5.465,13.453,8.634c1.034,0.768,2.032-0.967,1.009-1.727
						c-4.267-3.169-8.778-6.101-13.452-8.634C580.175,247.432,579.164,249.158,580.297,249.772L580.297,249.772z"/>
				</g>
				<g>
					<path style="fill:#EAA747;" d="M578.859,238.335c4.659,3.565,9.318,7.129,13.978,10.694c1.022,0.782,2.019-0.955,1.009-1.727
						c-4.659-3.565-9.318-7.129-13.978-10.694C578.847,235.827,577.85,237.563,578.859,238.335L578.859,238.335z"/>
				</g>
				<g>
					<path style="fill:#EAA747;" d="M578.872,229.062c4.76,3.623,9.709,7.022,14.277,10.888c0.977,0.827,2.399-0.581,1.414-1.414
						c-4.7-3.976-9.787-7.475-14.682-11.201C578.857,226.556,577.86,228.292,578.872,229.062L578.872,229.062z"/>
				</g>
				<g>
					<path style="fill:#EAA747;" d="M578.872,219.981c4.935,3.334,9.383,7.33,14.318,10.664c1.069,0.722,2.071-1.009,1.009-1.727
						c-4.935-3.334-9.383-7.33-14.318-10.664C578.812,217.532,577.81,219.264,578.872,219.981L578.872,219.981z"/>
				</g>
				<g>
					<path style="fill:#2E4F68;" d="M606.71,253.164c2.384,1.747,4.768,3.495,7.152,5.242c1.039,0.762,2.038-0.973,1.009-1.727
						c-2.384-1.747-4.768-3.495-7.152-5.242C606.68,250.675,605.681,252.41,606.71,253.164L606.71,253.164z"/>
				</g>
				<g>
					<path style="fill:#2E4F68;" d="M606.378,246.288c4.217,3.129,8.13,6.607,12.209,9.907c0.992,0.803,2.415-0.604,1.414-1.414
						c-4.212-3.408-8.259-6.989-12.614-10.22C606.353,243.793,605.355,245.528,606.378,246.288L606.378,246.288z"/>
				</g>
				<g>
					<path style="fill:#2E4F68;" d="M605.508,238.498c4.625,3.266,8.656,7.265,13.281,10.532c1.054,0.744,2.054-0.99,1.009-1.727
						c-4.625-3.266-8.655-7.265-13.281-10.532C605.464,236.027,604.463,237.76,605.508,238.498L605.508,238.498z"/>
				</g>
				<g>
					<path style="fill:#2E4F68;" d="M607.57,233.46c3.53,2.355,7.06,4.709,10.59,7.064c1.074,0.716,2.076-1.015,1.009-1.727
						c-3.53-2.355-7.06-4.709-10.59-7.064C607.506,231.017,606.503,232.749,607.57,233.46L607.57,233.46z"/>
				</g>
				<g>
					<g>
						<path style="fill:#FEFEFE;" d="M556.452,216.149c3.642-5.833,7.679-12.843,14.57-15.211c7.806-2.683,14.086,0.73,19.718,5.775
							c3.939,3.529,8.067,6.308,13.496,6.78c6.192,0.538,11.074-2.605,15.765-6.298c1.01-0.796-0.413-2.202-1.414-1.414
							c-7.738,6.093-16.16,8.001-24.345,1.355c-4.03-3.273-7.298-7.273-12.585-8.483c-13.194-3.019-20.666,6.451-26.932,16.487
							C554.042,216.234,555.771,217.239,556.452,216.149L556.452,216.149z"/>
					</g>
					<g>
						<path style="fill:#FEFEFE;" d="M617.037,202.241c1.324,2.834,3.08,5.354,5.258,7.596c0.412,0.424,1.303,0.389,1.571-0.202
							c1.412-3.117,2.823-6.234,4.235-9.351c0.368-0.812-0.233-1.641-1.129-1.469c-3.046,0.584-5.815,1.855-8.949,1.931
							c-1.285,0.031-1.29,2.031,0,2c3.332-0.081,6.248-1.382,9.481-2.002c-0.376-0.49-0.753-0.979-1.129-1.469
							c-1.412,3.117-2.823,6.234-4.235,9.351c0.523-0.067,1.047-0.135,1.571-0.202c-2.064-2.124-3.693-4.511-4.946-7.192
							C618.22,200.067,616.495,201.081,617.037,202.241L617.037,202.241z"/>
					</g>
				</g>
				<g>
					<path style="fill:#FEFEFE;" d="M541.113,212.434c0.834,14.912,0.122,29.857,0.548,44.782c0.016,0.542,0.446,0.998,1,1
						c29.855,0.097,59.695,1.228,89.536-0.207c1.281-0.062,1.289-2.062,0-2c-21.908,1.054-43.808,0.753-65.729,0.435
						c-5.695-0.083-11.391-0.155-17.087-0.195c-3.913-0.028-5.753,0.731-5.837-3.781c-0.05-2.672-0.073-5.345-0.077-8.018
						c-0.017-10.677,0.242-21.348-0.355-32.015C543.042,211.154,541.041,211.146,541.113,212.434L541.113,212.434z"/>
				</g>
			</g>
			<g>
				<g>
					<path style="fill:#FEFEFE;" d="M662.111,252.297c4.744-5.952,10.596-10.901,15.324-16.884c0.79-0.999-0.616-2.424-1.414-1.414
						c-4.729,5.982-10.581,10.931-15.324,16.884C659.902,251.88,661.308,253.304,662.111,252.297L662.111,252.297z"/>
				</g>
				<g>
					<path style="fill:#FEFEFE;" d="M677.233,235.57c7.877-5.721,15.101-12.279,22.978-18c1.031-0.749,0.034-2.485-1.009-1.727
						c-7.877,5.721-15.101,12.279-22.978,18C675.192,234.592,676.189,236.328,677.233,235.57L677.233,235.57z"/>
				</g>
				<g>
					<path style="fill:#2E4F68;" d="M674.359,205.514c0.369,9.735,0.725,19.47,1.369,29.192c0.085,1.278,2.085,1.287,2,0
						c-0.644-9.722-0.999-19.457-1.369-29.192C676.31,204.231,674.31,204.225,674.359,205.514L674.359,205.514z"/>
				</g>
				<g>
					<path style="fill:#2E4F68;" d="M676.223,235.57c7.863,4.035,15.373,8.604,22.978,13.095c1.111,0.656,2.118-1.072,1.009-1.727
						c-7.604-4.49-15.114-9.06-22.978-13.095C676.089,233.256,675.076,234.981,676.223,235.57L676.223,235.57z"/>
				</g>
				<g>
					<path style="fill:#EAA747;" d="M675.359,204.514c-11.507,1.465-21.001,8.333-24.425,19.675
						c-3.452,11.434,0.611,25.126,10.506,32.127c11.18,7.91,29.346,4.837,37.985-5.529c6.598-7.917,7.993-19.782,4.076-29.216
						C698.66,209.912,687.499,204.725,675.359,204.514c-1.287-0.022-1.288,1.978,0,2c11.921,0.207,22.803,5.55,26.872,17.308
						c4.683,13.535-2.141,28.692-15.905,33.236c-7.738,2.555-17.042,2.388-23.876-2.469c-6.775-4.815-10.715-13.526-10.775-21.728
						c-0.104-13.969,10.075-24.615,23.685-26.348C676.619,206.354,676.635,204.352,675.359,204.514L675.359,204.514z"/>
				</g>
			</g>
			<g>
				<rect x="55.617" y="452.162" style="fill:#F8F2F2;" width="639.717" height="17.003"/>
				<g>
					<rect x="361.177" y="442.061" style="fill:#2E4F68;" width="142.676" height="10.101"/>
					<polygon style="fill:#2E4F68;" points="575.191,442.061 432.515,442.061 459.128,344.97 601.804,344.97 					"/>
					<rect x="432.515" y="442.061" style="fill:#1B333F;" width="142.676" height="10.101"/>
					<path style="fill:#F8F2F2;" d="M530.341,390.047c-0.451-3.261-3.641-6.131-6.883-5.553c0,0-10.551-0.075-10.536,8.469
						c0.007,4.012,3.219,7.867,7.228,8.007c2.279,0.079,4.503-0.897,6.28-2.327C528.995,396.579,530.793,393.308,530.341,390.047z"
						/>
				</g>
				<g>
					<polygon style="fill:#E7EEF2;" points="118.33,363.1 99.512,377.855 101.512,397.5 106.33,397.5 101.512,400.489 
						103.5,412.726 109.101,412.726 102.512,415.5 106.33,439.04 109.921,439.04 106.33,442.674 107.575,452.162 147.989,452.162 
						139.34,363.103 					"/>
					<path style="fill:#E7EEF2;" d="M203.502,364.893c0,0,6.552-6.921,9.828-15.393c0,0-15.993,11.5-38.663,2.5
						c0,0-14.029,12.43-24.678,11.766C149.989,363.766,197.655,368.952,203.502,364.893z"/>
					<polygon style="fill:#FEFEFE;" points="210.33,400.97 190.68,400.97 210.33,404.63 208.48,443.08 208,452.16 125.91,452.16 
						124.32,439.04 123.1,428.91 136.67,428.91 123.1,424.33 120.22,395.95 132.7,395.95 119.22,392.95 118.33,363.1 213.33,365.1 
											"/>
					<polygon style="fill:#E7EEF2;" points="208.48,443.08 208,452.16 125.91,452.16 124.32,439.04 143.85,447.11 					"/>
					<g>
						<path style="fill:#E7EEF2;" d="M149.989,427.94c12.44-0.597,24.893-0.721,37.342-0.37c0.644,0.018,0.643-0.982,0-1
							c-12.449-0.351-24.903-0.227-37.342,0.37C149.348,426.971,149.345,427.971,149.989,427.94L149.989,427.94z"/>
					</g>
					<g>
						<path style="fill:#E7EEF2;" d="M135.331,412.522c20.669,0.158,41.338,0.316,62.007,0.474c0.644,0.005,0.644-0.995,0-1
							c-20.669-0.158-41.338-0.316-62.007-0.474C134.687,411.517,134.686,412.517,135.331,412.522L135.331,412.522z"/>
					</g>
					<g>
						<path style="fill:#E7EEF2;" d="M139.34,403.558c13.064-1.523,26.219-1.827,39.34-0.906c0.642,0.045,0.639-0.955,0-1
							c-13.121-0.92-26.275-0.617-39.34,0.906C138.709,402.632,138.701,403.633,139.34,403.558L139.34,403.558z"/>
					</g>
					<g>
						<path style="fill:#E7EEF2;" d="M139.333,388.167c20.222,0,40.444,0,60.667,0c0.643,0,0.645-1,0-1c-20.222,0-40.444,0-60.667,0
							C138.69,387.167,138.689,388.167,139.333,388.167L139.333,388.167z"/>
					</g>
					<g>
						<path style="fill:#E7EEF2;" d="M137.265,375.711c19.912,2.88,40.074,3.39,60.104,1.49c0.635-0.06,0.641-1.061,0-1
							c-19.934,1.891-40.021,1.412-59.839-1.454C136.901,374.656,136.629,375.619,137.265,375.711L137.265,375.711z"/>
					</g>
					<g>
						<path style="fill:#CCD7DB;" d="M104.195,383.345c3.396-2.238,6.793-4.475,10.189-6.713c0.535-0.353,0.035-1.219-0.505-0.863
							c-3.396,2.238-6.793,4.475-10.189,6.713C103.155,382.834,103.656,383.7,104.195,383.345L104.195,383.345z"/>
					</g>
					<g>
						<path style="fill:#CCD7DB;" d="M104.886,390.625c2.587-1.783,5.173-3.565,7.76-5.348c0.527-0.363,0.027-1.23-0.505-0.863
							c-2.587,1.783-5.173,3.565-7.76,5.348C103.854,390.124,104.354,390.991,104.886,390.625L104.886,390.625z"/>
					</g>
					<g>
						<path style="fill:#CCD7DB;" d="M104.783,406.268c3.114-2.532,6.577-4.405,10.395-5.641c0.61-0.197,0.349-1.163-0.266-0.964
							c-3.979,1.288-7.592,3.261-10.837,5.898C103.576,405.967,104.287,406.671,104.783,406.268L104.783,406.268z"/>
					</g>
					<g>
						<path style="fill:#CCD7DB;" d="M107.149,420.79c2.209-1.609,4.418-3.218,6.626-4.827c0.515-0.375,0.017-1.243-0.505-0.863
							c-2.209,1.609-4.418,3.218-6.626,4.827C106.129,420.302,106.628,421.17,107.149,420.79L107.149,420.79z"/>
					</g>
					<g>
						<path style="fill:#CCD7DB;" d="M109.252,427.432c2.833-1.667,5.667-3.333,8.5-5c0.554-0.326,0.052-1.191-0.505-0.863
							c-2.833,1.667-5.667,3.333-8.5,5C108.193,426.894,108.696,427.759,109.252,427.432L109.252,427.432z"/>
					</g>
					<g>
						<path style="fill:#CCD7DB;" d="M112.229,435.897c1.461-0.939,3.06-1.55,4.784-1.78c0.629-0.084,0.637-1.085,0-1
							c-1.905,0.254-3.67,0.876-5.289,1.917C111.185,435.38,111.686,436.246,112.229,435.897L112.229,435.897z"/>
					</g>
					<g>
						<path style="fill:#CCD7DB;" d="M109.15,447.539c2.167-0.664,4.335-1.328,6.502-1.993c0.614-0.188,0.352-1.154-0.266-0.964
							c-2.167,0.664-4.335,1.328-6.502,1.993C108.271,446.762,108.533,447.728,109.15,447.539L109.15,447.539z"/>
					</g>
					<path style="fill:#E7EEF2;" d="M158.661,417.945c0,0,24.253,0.447,32.8,13.055c0,0,12.039-5.11,13.039-13.055H158.661z"/>
					<path style="fill:#E7EEF2;" d="M174.667,393.515H139.34c0,0-4.045,6.245-1.943,14.115
						C137.398,407.63,152.333,396.031,174.667,393.515z"/>
				</g>
				<g>
					<g>
						<path style="fill:#416C8C;" d="M598.171,435.279c-1.408,0-2.55,1.142-2.55,2.55v11.781c0,1.408,1.142,2.55,2.55,2.55H673.5
							v-16.881H598.171z"/>
						<rect x="599.621" y="439.04" style="fill:#FEFEFE;" width="73.879" height="9.359"/>
					</g>
					<g>
						<path style="fill:#EAA747;" d="M593.671,417.945c-1.685,0-3.051,1.366-3.051,3.051v10.779c0,1.685,1.366,3.051,3.051,3.051
							h74.828v-16.881H593.671z"/>
						<rect x="594.62" y="421.706" style="fill:#FEFEFE;" width="73.879" height="9.359"/>
					</g>
					<g>
						<path style="fill:#2E4F68;" d="M599.657,398.974c-2.229,0-4.036,1.807-4.036,4.036v10.809c0,2.229,1.807,4.036,4.036,4.036
							H673.5v-18.881H599.657z"/>
						<rect x="599.621" y="402.735" style="fill:#FEFEFE;" width="73.879" height="11.359"/>
					</g>
					<g>
						<path style="fill:#EAA747;" d="M604.141,379.003c-1.945,0-3.522,1.577-3.522,3.522v12.836c0,1.945,1.577,3.522,3.522,3.522
							h74.357v-19.881H604.141z"/>
						<rect x="604.619" y="382.764" style="fill:#FEFEFE;" width="73.879" height="12.359"/>
					</g>
					<polygon style="fill:#4C779E;" points="609.667,408.415 611,421.706 613.667,418 617.247,420.667 615.333,408.415 					"/>
					<polygon style="fill:#BBCAE5;" points="628.333,388.513 627,400.974 629.56,398.884 631.56,400.974 634.26,388.944 					"/>
					<g>
						<path style="fill:#E7EEF2;" d="M638.667,389.5c13,0,26,0,39,0c0.643,0,0.644-1,0-1c-13,0-26,0-39,0
							C638.023,388.5,638.022,389.5,638.667,389.5L638.667,389.5z"/>
					</g>
					<g>
						<path style="fill:#E7EEF2;" d="M608.333,389.167c5.778,0,11.556,0,17.333,0c0.643,0,0.644-1,0-1c-5.778,0-11.556,0-17.333,0
							C607.69,388.167,607.689,389.167,608.333,389.167L608.333,389.167z"/>
					</g>
					<g>
						<path style="fill:#E7EEF2;" d="M609.667,386.167c14.556,0,29.111,0,43.667,0c0.643,0,0.645-1,0-1c-14.556,0-29.111,0-43.667,0
							C609.023,385.167,609.022,386.167,609.667,386.167L609.667,386.167z"/>
					</g>
					<g>
						<path style="fill:#E7EEF2;" d="M641,393.167c4.889,0,9.778,0,14.667,0c0.643,0,0.644-1,0-1c-4.889,0-9.778,0-14.667,0
							C640.357,392.167,640.355,393.167,641,393.167L641,393.167z"/>
					</g>
					<g>
						<path style="fill:#E7EEF2;" d="M620,407.5c14.444,0,28.889,0,43.333,0c0.643,0,0.645-1,0-1c-14.444,0-28.889,0-43.333,0
							C619.357,406.5,619.355,407.5,620,407.5L620,407.5z"/>
					</g>
					<g>
						<path style="fill:#E7EEF2;" d="M628.333,412.167c13.556,0,27.111,0,40.667,0c0.643,0,0.645-1,0-1c-13.556,0-27.111,0-40.667,0
							C627.69,411.167,627.689,412.167,628.333,412.167L628.333,412.167z"/>
					</g>
					<g>
						<path style="fill:#E7EEF2;" d="M603,406.167c2.556,0,5.111,0,7.667,0c0.643,0,0.644-1,0-1c-2.556,0-5.111,0-7.667,0
							C602.357,405.167,602.355,406.167,603,406.167L603,406.167z"/>
					</g>
					<g>
						<path style="fill:#E7EEF2;" d="M604,411.167c1,0,2,0,3,0c0.643,0,0.645-1,0-1c-1,0-2,0-3,0
							C603.357,410.167,603.355,411.167,604,411.167L604,411.167z"/>
					</g>
					<g>
						<path style="fill:#E7EEF2;" d="M602.333,425.833c16.222,0,32.444,0,48.667,0c0.643,0,0.645-1,0-1c-16.222,0-32.444,0-48.667,0
							C601.69,424.833,601.689,425.833,602.333,425.833L602.333,425.833z"/>
					</g>
					<g>
						<path style="fill:#E7EEF2;" d="M622.667,428.5c12.222,0,24.444,0,36.667,0c0.643,0,0.645-1,0-1c-12.222,0-24.444,0-36.667,0
							C622.023,427.5,622.022,428.5,622.667,428.5L622.667,428.5z"/>
					</g>
					<g>
						<path style="fill:#E7EEF2;" d="M606.667,443.167c15.444,0,30.889,0,46.333,0c0.643,0,0.645-1,0-1c-15.444,0-30.889,0-46.333,0
							C606.023,442.167,606.022,443.167,606.667,443.167L606.667,443.167z"/>
					</g>
				</g>
				<g>
					<path style="fill:#EAA747;" d="M256.6,405.667h-31.296c-1.068,0-1.933,0.865-1.933,1.933v44.562h35.162V407.6
						C258.533,406.532,257.667,405.667,256.6,405.667z"/>
					<g>
						<path style="fill:#EAA747;" d="M256.333,416.936c4.496-0.886,9.243-1.275,10.885,3.471c0.831,2.404,1.031,5.277,1.159,7.791
							c0.15,2.946,0.118,6.145-1.074,8.898c-2.251,5.197-7.043,4.316-11.829,3.272c-3.137-0.684-4.477,4.135-1.329,4.821
							c5.82,1.269,11.822,2.175,15.96-3.032c3.049-3.837,3.512-9.24,3.272-13.959c-0.178-3.51-0.518-7.621-1.839-10.925
							c-2.717-6.792-10.593-6.329-16.533-5.159C251.85,412.736,253.185,417.557,256.333,416.936L256.333,416.936z"/>
					</g>
					<g>
						<path style="fill:#FEFEFE;" d="M231.688,402.127c2.582-1.965,5.672-4.797,4.287-8.412c-0.846-2.21-3.178-2.876-4.848-4.313
							c-3.431-2.952-4.897-7.905-0.993-11.265c1.466-1.261-0.664-3.375-2.121-2.121c-2.987,2.57-3.994,6.417-2.723,10.165
							c0.566,1.67,1.553,3.176,2.77,4.447c2.798,2.92,7.516,4.797,2.113,8.908C228.658,400.691,230.151,403.297,231.688,402.127
							L231.688,402.127z"/>
					</g>
					<g>
						<path style="fill:#FEFEFE;" d="M243.352,401.686c1.474-3.079,4.693-5.525,4.455-9.211c-0.099-1.527-0.677-2.875-1.504-4.159
							c-1.332-2.069-6.717-6.98-2.427-8.956c1.752-0.807,0.229-3.393-1.514-2.59c-2.831,1.304-3.637,4.415-2.612,7.229
							c0.833,2.286,3.089,3.676,3.962,5.832c1.902,4.697-1.178,6.637-2.951,10.341C239.932,401.905,242.518,403.428,243.352,401.686
							L243.352,401.686z"/>
					</g>
					<g>
						<path style="fill:#FEFEFE;" d="M252.614,401.549c2.198-2.393,4.676-5.868,4.45-9.283c-0.118-1.783-4.464-9.373-0.835-10.153
							c1.886-0.406,1.088-3.299-0.798-2.893c-2.833,0.61-4.074,4.129-3.591,6.768c0.313,1.713,1.381,3.28,1.813,4.972
							c0.836,3.275-0.959,6.07-3.161,8.468C249.189,400.848,251.305,402.975,252.614,401.549L252.614,401.549z"/>
					</g>
				</g>
			</g>
			<g>
				<g>
					<path style="fill:#EAA747;" d="M85.658,57.336c-5.359,0.538-10.168,5.679-9.574,11.228c0.584,5.46,5.207,10.394,10.91,10.136
						C99.98,78.113,99.099,56.34,85.658,57.336c-1.276,0.095-1.286,2.095,0,2c10.601-0.786,11.856,16.352,1.649,17.304
						c-10.642,0.992-12.676-16.197-1.649-17.304C86.926,59.209,86.939,57.208,85.658,57.336L85.658,57.336z"/>
				</g>
				<g>
					<path style="fill:#FEFEFE;" d="M75.557,45.882c1.641,2.249,2.597,4.909,3.565,7.496c0.447,1.195,2.381,0.677,1.929-0.532
						c-1.024-2.737-2.03-5.593-3.767-7.973C76.533,43.843,74.797,44.84,75.557,45.882L75.557,45.882z"/>
				</g>
				<g>
					<path style="fill:#FEFEFE;" d="M66.138,52.352c1.974,1.833,3.948,3.666,5.921,5.499c0.942,0.875,2.36-0.536,1.414-1.414
						c-1.974-1.833-3.948-3.666-5.921-5.499C66.61,50.063,65.193,51.474,66.138,52.352L66.138,52.352z"/>
				</g>
				<g>
					<path style="fill:#FEFEFE;" d="M60.71,63.991c2.586,0.585,5.172,1.17,7.757,1.755c1.253,0.284,1.789-1.644,0.532-1.929
						c-2.586-0.585-5.172-1.17-7.757-1.755C59.988,61.779,59.453,63.707,60.71,63.991L60.71,63.991z"/>
				</g>
				<g>
					<path style="fill:#FEFEFE;" d="M63.08,76.536c2.005-0.446,3.905-1.511,5.998-1.438c1.287,0.045,1.286-1.955,0-2
						c-2.3-0.08-4.333,1.021-6.53,1.51C61.292,74.886,61.824,76.815,63.08,76.536L63.08,76.536z"/>
				</g>
				<g>
					<path style="fill:#FEFEFE;" d="M75.605,80.241c-1.475,2.087-2.95,4.174-4.425,6.261c-0.744,1.053,0.989,2.053,1.727,1.009
						c1.475-2.087,2.95-4.174,4.425-6.261C78.076,80.197,76.343,79.197,75.605,80.241L75.605,80.241z"/>
				</g>
				<g>
					<path style="fill:#FEFEFE;" d="M84.332,84.518c-0.352,2.581-0.703,5.163-1.055,7.744c-0.171,1.259,1.755,1.803,1.929,0.532
						c0.352-2.581,0.703-5.163,1.055-7.744C86.432,83.791,84.506,83.246,84.332,84.518L84.332,84.518z"/>
				</g>
				<g>
					<path style="fill:#FEFEFE;" d="M94.642,83.206c0.806,2.501,1.823,4.915,3.048,7.24c0.601,1.139,2.327,0.129,1.727-1.009
						c-1.147-2.175-2.093-4.421-2.847-6.762C96.178,81.455,94.246,81.976,94.642,83.206L94.642,83.206z"/>
				</g>
				<g>
					<path style="fill:#FEFEFE;" d="M101.358,77.925c2.647,1.204,5.412,2.272,7.778,3.993c1.042,0.758,2.041-0.976,1.009-1.727
						c-2.366-1.721-5.131-2.789-7.778-3.993C101.205,75.67,100.187,77.393,101.358,77.925L101.358,77.925z"/>
				</g>
				<g>
					<path style="fill:#FEFEFE;" d="M103.713,70.308c2.619-0.072,5.123-1.034,7.738-1.105c1.284-0.035,1.29-2.035,0-2
						c-2.619,0.072-5.123,1.034-7.738,1.105C102.428,68.343,102.423,70.343,103.713,70.308L103.713,70.308z"/>
				</g>
				<g>
					<path style="fill:#FEFEFE;" d="M100.901,62.488c2.659-1.894,5.869-2.297,8.69-3.807c1.135-0.608,0.126-2.335-1.009-1.727
						c-2.822,1.511-6.023,1.907-8.69,3.807C98.852,61.502,99.85,63.237,100.901,62.488L100.901,62.488z"/>
				</g>
				<g>
					<path style="fill:#FEFEFE;" d="M96.411,55.547c2.219-2.276,3.947-4.995,6.166-7.271c0.899-0.922-0.514-2.338-1.414-1.414
						c-2.219,2.276-3.947,4.995-6.166,7.271C94.098,55.055,95.511,56.471,96.411,55.547L96.411,55.547z"/>
				</g>
				<g>
					<path style="fill:#FEFEFE;" d="M89.237,51.99c0.047-3.084,0.69-6.128,0.737-9.211c0.02-1.287-1.98-1.288-2,0
						c-0.047,3.084-0.69,6.128-0.737,9.211C87.218,53.278,89.218,53.278,89.237,51.99L89.237,51.99z"/>
				</g>
			</g>
			<g>
				<g>
					<path style="fill:#FEFEFE;" d="M250.632,30.326c-7.58-2.868-15.391-2.571-21.872,2.728c-6.878,5.624-9.125,14.8-5.066,22.731
						c5.35,10.456,19.508,16.943,29.028,7.361c0.908-0.914-0.505-2.329-1.414-1.414c-7.5,7.549-19.237,3.628-24.436-4.416
						c-4.965-7.682-4.094-16.761,3.202-22.682c6.04-4.903,13.022-5.03,20.028-2.379C251.305,32.71,251.826,30.778,250.632,30.326
						L250.632,30.326z"/>
				</g>
				<g>
					<path style="fill:#FEFEFE;" d="M249.516,31.081c-7.713,3.813-15.504,8.88-13.891,18.872c1.206,7.471,9.336,12.157,16.123,13.45
						c1.258,0.24,1.797-1.688,0.532-1.929c-6.378-1.215-14.357-5.657-14.798-12.96c-0.523-8.669,6.39-12.417,13.044-15.706
						C251.679,32.238,250.667,30.512,249.516,31.081L249.516,31.081z"/>
				</g>
			</g>
			<g>
				<g>
					<path style="fill:#EAA747;" d="M639.977,281.85c-16.65,4.648-16.173,42.372,1.854,45.001
						c18.025,2.629,18.852-44.562-1.588-45.037c-1.287-0.03-1.287,1.97,0,2c8.323,0.193,11.509,9.055,12.512,16.066
						c1.093,7.636-0.729,30.084-13.447,24.155c-12.687-5.915-12.806-36.346,1.201-40.256
						C641.746,283.433,641.22,281.503,639.977,281.85L639.977,281.85z"/>
				</g>
				<g>
					<path style="fill:#2E4F68;" d="M624.511,291.699c10.121,8.145,24.951,8.131,33.558-2.072c0.825-0.978-0.583-2.4-1.414-1.414
						c-7.833,9.286-21.446,9.543-30.729,2.072C624.932,289.485,623.508,290.892,624.511,291.699L624.511,291.699z"/>
				</g>
				<g>
					<path style="fill:#2E4F68;" d="M659.673,317.536c-4.77-3.366-10.373-4.483-16.137-4.413c-1.286,0.016-1.289,2.016,0,2
						c5.448-0.066,10.622,0.961,15.127,4.14C659.717,320.007,660.718,318.273,659.673,317.536L659.673,317.536z"/>
				</g>
				<g>
					<path style="fill:#2E4F68;" d="M643.537,313.123c-6.173,0.306-11.972,2.841-15.473,8.085c-0.717,1.073,1.015,2.076,1.727,1.009
						c3.089-4.628,8.322-6.825,13.746-7.094C644.818,315.06,644.825,313.059,643.537,313.123L643.537,313.123z"/>
				</g>
				<g>
					<path style="fill:#FEFEFE;" d="M639.242,282.815c0.48,14.399,2.231,28.855,3.891,43.158c0.147,1.263,2.148,1.278,2,0
						c-1.66-14.302-3.411-28.758-3.891-43.158C641.2,281.531,639.2,281.525,639.242,282.815L639.242,282.815z"/>
				</g>
				<g>
					<path style="fill:#2E4F68;" d="M619.615,307.213c14.727-0.472,29.415-1.948,44.143-2.42c1.284-0.041,1.289-2.041,0-2
						c-14.727,0.472-29.415,1.948-44.143,2.42C618.331,305.254,618.325,307.255,619.615,307.213L619.615,307.213z"/>
				</g>
				<g>
					<path style="fill:#2E4F68;" d="M639.977,281.85c-10.332,1.427-18.998,8.111-21.003,18.679
						c-1.321,6.963,0.809,14.568,5.74,19.71c7.46,7.779,20.796,8.847,29.828,3.372c8.986-5.447,12.24-16.926,9.047-26.713
						c-3.413-10.462-12.785-15.153-23.347-15.084c-1.286,0.008-1.289,2.008,0,2c10.358-0.067,19.359,4.818,21.911,15.331
						c3.903,16.076-10.039,28.59-25.633,25.242c-8.752-1.879-15.068-8.97-15.88-17.891c-1.116-12.242,8.38-21.131,19.868-22.718
						C641.778,283.604,641.237,281.676,639.977,281.85L639.977,281.85z"/>
				</g>
			</g>
		</g>
	</g>
</g>
</svg>
